<?xml version="1.0" encoding="UTF-8"?>
<svg version="1.1" xmlns="http://www.w3.org/2000/svg" width="1280" height="720">
<path d="M0 0 C422.4 0 844.8 0 1280 0 C1280 237.6 1280 475.2 1280 720 C857.6 720 435.2 720 0 720 C0 482.4 0 244.8 0 0 Z " fill="#FEFEFE" transform="translate(0,0)"/>
<path d="M0 0 C3.64392697 3.05147223 7.01160181 6.33193806 10.35400391 9.70849609 C11.08232422 10.41490234 11.81064453 11.12130859 12.56103516 11.84912109 C28.19522339 28.00753261 34.04938597 50.05752498 33.68994141 71.97802734 C32.90965503 91.05635168 25.26708929 109.67149402 12.35400391 123.70849609 C11.24798828 124.95179688 11.24798828 124.95179688 10.11962891 126.22021484 C-4.18465153 141.48278857 -24.82067442 151.16932822 -45.82568359 151.91162109 C-70.18757294 152.32193753 -91.25603132 145.94495128 -109.36816406 128.95654297 C-123.75185033 115.04807826 -134.47582076 95.23159123 -134.88427734 74.84130859 C-135.30599302 48.5386758 -129.28072476 27.17330033 -110.95849609 7.58349609 C-81.4625583 -20.53251479 -32.89398513 -25.80972728 0 0 Z " fill="#E1DE69" transform="translate(447.64599609375,292.29150390625)"/>
<path d="M0 0 C26.05569007 0 26.05569007 0 32.12109375 4.61328125 C37.89120569 12.06134859 38.7612819 18.66815732 38 28 C36.94782824 33.73911866 34.44422158 37.07451905 30.01171875 40.7734375 C20.54148443 46.54752211 11.52699168 44 0 44 C0 29.48 0 14.96 0 0 Z " fill="#090804" transform="translate(357,340)"/>
<path d="M0 0 C3.67125 -0.061875 7.3425 -0.12375 11.125 -0.1875 C12.84420654 -0.22846802 12.84420654 -0.22846802 14.59814453 -0.27026367 C20.13371644 -0.31539853 24.27021538 -0.23862099 29 3 C31.61273686 6.03414603 32.00942592 7.47214842 31.9375 11.5 C30.93441978 15.24483282 29.6309397 17.19932226 27 20 C27.763125 20.4125 28.52625 20.825 29.3125 21.25 C32.06662888 23.04338625 33.47367556 24.10801685 35 27 C35.57831392 32.2048253 34.90888885 35.63666672 32 40 C27.23646805 44.51067323 22.97700117 44.42182599 16.57275391 44.36035156 C15.26999512 44.32393555 13.96723633 44.28751953 12.625 44.25 C8.45875 44.1675 4.2925 44.085 0 44 C0 29.48 0 14.96 0 0 Z " fill="#090904" transform="translate(404,340)"/>
<path d="M0 0 C13 0 13 0 16.75 2.375 C20.06663937 6.2444126 20.18139755 8.26450315 20.25 13.3125 C20.27578125 14.44300781 20.3015625 15.57351563 20.328125 16.73828125 C19.84132444 21.57731058 18.01473799 24.06136736 14.5 27.3125 C11 29 11 29 0 29 C0 19.43 0 9.86 0 0 Z " fill="#DDDA66" transform="translate(366,348)"/>
<path d="M0 0 C2.0625 -0.061875 4.125 -0.12375 6.25 -0.1875 C7.99023438 -0.23970703 7.99023438 -0.23970703 9.765625 -0.29296875 C13.25717355 0.02329471 14.6141457 0.46937299 17 3 C17.5 6.5 17.5 6.5 17 10 C14.6141457 12.53062701 13.25717355 12.97670529 9.765625 13.29296875 C8.60546875 13.25816406 7.4453125 13.22335937 6.25 13.1875 C4.1875 13.125625 2.125 13.06375 0 13 C0 8.71 0 4.42 0 0 Z " fill="#DCD966" transform="translate(413,364)"/>
<path d="M0 0 C1.95803507 -0.05389087 3.91648909 -0.09274217 5.875 -0.125 C7.51082031 -0.15980469 7.51082031 -0.15980469 9.1796875 -0.1953125 C12 0 12 0 14 2 C14.3125 5.5 14.3125 5.5 14 9 C9.43362969 12.04424687 5.43284541 11.12783166 0 11 C0 7.37 0 3.74 0 0 Z " fill="#D8D564" transform="translate(413,347)"/>
</svg>
