<svg xmlns="http://www.w3.org/2000/svg" width="47.499" height="29.679" viewBox="0 0 47.499 29.679">
  <path id="Icon_awesome-amazon-pay" data-name="Icon awesome-amazon-pay" d="M.984,24.8c.179-.326.4-.381.754-.194.808.435,1.6.886,2.425,1.3a46.308,46.308,0,0,0,9.9,3.6,47.919,47.919,0,0,0,4.912.917,46.886,46.886,0,0,0,7.383.4c1.352-.031,2.7-.14,4.049-.3A46.913,46.913,0,0,0,43.1,27.2a1.109,1.109,0,0,1,.707-.093.628.628,0,0,1,.319,1.08,5.44,5.44,0,0,1-.746.575,29.759,29.759,0,0,1-7.74,3.722A36.782,36.782,0,0,1,29.8,33.853a33.494,33.494,0,0,1-4.134.373,1.655,1.655,0,0,0-.194.023h-1.64a1.653,1.653,0,0,0-.194-.023c-.28-.016-.56-.023-.832-.031a33.132,33.132,0,0,1-3.917-.412,34.847,34.847,0,0,1-6.248-1.624A34.453,34.453,0,0,1,1.326,25.4a2.693,2.693,0,0,1-.342-.443ZM13.263,4.578l-.334.047A6.289,6.289,0,0,0,9.976,5.8c-.187.132-.357.272-.552.42a.333.333,0,0,1-.031-.109c-.031-.21-.062-.427-.1-.637A.523.523,0,0,0,8.7,4.959H7.808c-.536,0-.637.1-.637.637V21.862c0,.078,0,.155.008.233a.378.378,0,0,0,.381.389c.544.008,1.1.008,1.64,0a.385.385,0,0,0,.389-.389c.008-.078.008-.155.008-.233V16.235c.085.07.132.109.171.148a5.457,5.457,0,0,0,4.741,1.2,4.72,4.72,0,0,0,3.4-2.712,7.948,7.948,0,0,0,.8-3.427,8.906,8.906,0,0,0-.629-3.87A4.577,4.577,0,0,0,14.67,4.7c-.249-.054-.505-.078-.762-.117-.218-.008-.427-.008-.645-.008ZM9.58,7.834a.27.27,0,0,1,.132-.256,5.359,5.359,0,0,1,3.544-1.026,2.814,2.814,0,0,1,2.6,2.013,7.392,7.392,0,0,1,.381,2.565,7.7,7.7,0,0,1-.311,2.378,3,3,0,0,1-3.311,2.215,5.389,5.389,0,0,1-2.907-1.08.277.277,0,0,1-.132-.256c.008-1.1,0-2.184,0-3.28s.008-2.176,0-3.272ZM25.565,4.578c-.078.008-.155.023-.225.031a11.5,11.5,0,0,0-2.246.319c-.474.124-.933.3-1.391.451a.561.561,0,0,0-.412.6c.008.256-.008.513,0,.769.008.373.163.474.528.381.606-.155,1.212-.326,1.826-.443a8.6,8.6,0,0,1,2.891-.109,1.882,1.882,0,0,1,1.306.653A2.151,2.151,0,0,1,28.254,8.5c.023.645.016,1.29.023,1.935a.609.609,0,0,1-.016.109c-.039-.008-.07,0-.1-.008a14.032,14.032,0,0,0-2.487-.381,6.64,6.64,0,0,0-2.588.3A3.79,3.79,0,0,0,20.8,12.4a4.067,4.067,0,0,0-.3,2.386,3.193,3.193,0,0,0,1.663,2.464,4.5,4.5,0,0,0,2.945.42,6.393,6.393,0,0,0,3.132-1.43.572.572,0,0,1,.124-.085c.047.3.085.575.14.855a.442.442,0,0,0,.42.4c.42.008.847.008,1.267,0a.376.376,0,0,0,.373-.365,2.037,2.037,0,0,0,.008-.218V8.588a6.217,6.217,0,0,0-.07-1,3.085,3.085,0,0,0-1.477-2.363,4.484,4.484,0,0,0-1.694-.552c-.28-.039-.56-.062-.839-.1-.3.008-.614.008-.925.008Zm2.72,9.924a.259.259,0,0,1-.117.233,5.918,5.918,0,0,1-2.907,1.158,2.667,2.667,0,0,1-1.306-.14,1.56,1.56,0,0,1-.964-1.034,2.557,2.557,0,0,1-.008-1.508A1.791,1.791,0,0,1,24.26,12a4.766,4.766,0,0,1,1.927-.171c.653.054,1.29.179,1.943.264.124.016.163.078.163.2-.008.373,0,.738,0,1.111S28.278,14.137,28.285,14.5Zm20.2,10.056c-.078-.389-.373-.536-.707-.645a6.871,6.871,0,0,0-1.632-.3,11.449,11.449,0,0,0-3.046.148,8.024,8.024,0,0,0-3.109,1.212,1.069,1.069,0,0,0-.288.272.4.4,0,0,0-.039.311c.031.117.163.148.28.14a1.259,1.259,0,0,0,.171-.008c.606-.062,1.2-.132,1.811-.194a15.284,15.284,0,0,1,2.666-.07,5.568,5.568,0,0,1,1.119.21.784.784,0,0,1,.591.808,5.717,5.717,0,0,1-.272,1.811,32.84,32.84,0,0,1-1.228,3.5,1.366,1.366,0,0,0-.078.233c-.039.225.093.373.319.319a.821.821,0,0,0,.373-.194,11.339,11.339,0,0,0,.987-1.041,10.49,10.49,0,0,0,1.92-4.321c.062-.28.109-.567.163-.847V24.558ZM38.217,14.984q-1.5-4.162-3.008-8.331c-.155-.443-.326-.878-.49-1.313a.515.515,0,0,0-.5-.373c-.591-.008-1.181-.016-1.78-.008-.194,0-.288.155-.249.35a3.351,3.351,0,0,0,.148.474q2.285,5.654,4.593,11.307a1.054,1.054,0,0,1,.016.917c-.256.567-.459,1.166-.723,1.733a1.788,1.788,0,0,1-1.181,1.034,3.274,3.274,0,0,1-1.2.085c-.194-.016-.389-.062-.583-.078-.264-.016-.4.1-.4.373s-.008.516,0,.769c.008.427.155.622.575.692a8.407,8.407,0,0,0,1.313.155,3.257,3.257,0,0,0,3.07-1.663,10.229,10.229,0,0,0,.715-1.43Q41.3,12.707,44.022,5.72a2.069,2.069,0,0,0,.124-.427c.031-.218-.07-.342-.288-.342-.513-.008-1.034,0-1.547,0a.586.586,0,0,0-.6.4c-.039.109-.085.21-.124.319l-2.7,7.771c-.194.56-.4,1.127-.6,1.725-.031-.085-.047-.132-.07-.187Z" transform="translate(-0.984 -4.57)" fill="#fcfcfc"/>
</svg>
