<svg xmlns="http://www.w3.org/2000/svg" width="125.59" height="24.182" viewBox="0 0 125.59 24.182"><g transform="translate(0 0)"><path d="M369.138,67.533l-5.96,3.329a.865.865,0,0,1-.489.108.878.878,0,0,1-.468-.182.958.958,0,0,1-.307-.418,1.03,1.03,0,0,1-.054-.527L363,62.794a1.023,1.023,0,0,0-.031-.462.969.969,0,0,0-.23-.393l-4.822-4.994a.985.985,0,0,1-.249-.46,1.022,1.022,0,0,1,.018-.53.967.967,0,0,1,.278-.44.885.885,0,0,1,.455-.217l6.661-1.029a.88.88,0,0,0,.4-.174.956.956,0,0,0,.281-.354l2.981-6.415a.943.943,0,0,1,.335-.392.864.864,0,0,1,.958,0,.964.964,0,0,1,.335.392l2.981,6.413a.97.97,0,0,0,.281.353.879.879,0,0,0,.4.174L380.7,55.3a.879.879,0,0,1,.455.217.967.967,0,0,1,.278.44,1.022,1.022,0,0,1,.018.53.986.986,0,0,1-.249.46l-4.821,4.993a.98.98,0,0,0-.229.392,1.038,1.038,0,0,0-.033.461l1.139,7.05a1.018,1.018,0,0,1-.052.528.961.961,0,0,1-.308.418.875.875,0,0,1-.469.182.863.863,0,0,1-.489-.109l-5.958-3.329a.862.862,0,0,0-.845,0Z" transform="translate(-357.641 -46.79)" fill="rgba(17,17,17,0.2)"/><path d="M369.138,67.533l-5.96,3.329a.865.865,0,0,1-.489.108.878.878,0,0,1-.468-.182.958.958,0,0,1-.307-.418,1.03,1.03,0,0,1-.054-.527L363,62.794a1.023,1.023,0,0,0-.031-.462.969.969,0,0,0-.23-.393l-4.822-4.994a.985.985,0,0,1-.249-.46,1.022,1.022,0,0,1,.018-.53.967.967,0,0,1,.278-.44.885.885,0,0,1,.455-.217l6.661-1.029a.88.88,0,0,0,.4-.174.956.956,0,0,0,.281-.354l2.981-6.415a.943.943,0,0,1,.335-.392.864.864,0,0,1,.958,0,.964.964,0,0,1,.335.392l2.981,6.413a.97.97,0,0,0,.281.353.879.879,0,0,0,.4.174L380.7,55.3a.879.879,0,0,1,.455.217.967.967,0,0,1,.278.44,1.022,1.022,0,0,1,.018.53.986.986,0,0,1-.249.46l-4.821,4.993a.98.98,0,0,0-.229.392,1.038,1.038,0,0,0-.033.461l1.139,7.05a1.018,1.018,0,0,1-.052.528.961.961,0,0,1-.308.418.875.875,0,0,1-.469.182.863.863,0,0,1-.489-.109l-5.958-3.329a.862.862,0,0,0-.845,0Z" transform="translate(-357.641 -46.79)" fill="#fcbf02"/><path d="M387.138,67.533l-5.96,3.329a.865.865,0,0,1-.489.108.878.878,0,0,1-.468-.182.957.957,0,0,1-.307-.418,1.03,1.03,0,0,1-.054-.527L381,62.794a1.022,1.022,0,0,0-.031-.462.969.969,0,0,0-.23-.393l-4.822-4.994a.985.985,0,0,1-.249-.46,1.021,1.021,0,0,1,.018-.53.966.966,0,0,1,.278-.44.885.885,0,0,1,.455-.217l6.661-1.029a.881.881,0,0,0,.4-.174.956.956,0,0,0,.281-.354l2.981-6.415a.943.943,0,0,1,.335-.392.864.864,0,0,1,.958,0,.964.964,0,0,1,.335.392l2.981,6.413a.971.971,0,0,0,.281.353.879.879,0,0,0,.4.174L398.7,55.3a.88.88,0,0,1,.455.217.967.967,0,0,1,.278.44,1.021,1.021,0,0,1,.018.53.986.986,0,0,1-.249.46l-4.821,4.993a.981.981,0,0,0-.229.392,1.038,1.038,0,0,0-.032.461l1.139,7.05a1.018,1.018,0,0,1-.052.528.961.961,0,0,1-.308.418.874.874,0,0,1-.469.182.863.863,0,0,1-.489-.109l-5.958-3.329a.862.862,0,0,0-.845,0Z" transform="translate(-350.203 -46.79)" fill="rgba(17,17,17,0.2)"/><path d="M387.138,67.533l-5.96,3.329a.865.865,0,0,1-.489.108.878.878,0,0,1-.468-.182.957.957,0,0,1-.307-.418,1.03,1.03,0,0,1-.054-.527L381,62.794a1.022,1.022,0,0,0-.031-.462.969.969,0,0,0-.23-.393l-4.822-4.994a.985.985,0,0,1-.249-.46,1.021,1.021,0,0,1,.018-.53.966.966,0,0,1,.278-.44.885.885,0,0,1,.455-.217l6.661-1.029a.881.881,0,0,0,.4-.174.956.956,0,0,0,.281-.354l2.981-6.415a.943.943,0,0,1,.335-.392.864.864,0,0,1,.958,0,.964.964,0,0,1,.335.392l2.981,6.413a.971.971,0,0,0,.281.353.879.879,0,0,0,.4.174L398.7,55.3a.88.88,0,0,1,.455.217.967.967,0,0,1,.278.44,1.021,1.021,0,0,1,.018.53.986.986,0,0,1-.249.46l-4.821,4.993a.981.981,0,0,0-.229.392,1.038,1.038,0,0,0-.032.461l1.139,7.05a1.018,1.018,0,0,1-.052.528.961.961,0,0,1-.308.418.874.874,0,0,1-.469.182.863.863,0,0,1-.489-.109l-5.958-3.329a.862.862,0,0,0-.845,0Z" transform="translate(-350.203 -46.79)" fill="#fcbf02"/><path d="M405.138,67.533l-5.96,3.329a.865.865,0,0,1-.489.108.878.878,0,0,1-.468-.182.957.957,0,0,1-.307-.418,1.03,1.03,0,0,1-.054-.527L399,62.794a1.023,1.023,0,0,0-.031-.462.969.969,0,0,0-.23-.393l-4.822-4.994a.985.985,0,0,1-.249-.46,1.021,1.021,0,0,1,.018-.53.966.966,0,0,1,.278-.44.885.885,0,0,1,.455-.217l6.661-1.029a.881.881,0,0,0,.4-.174.956.956,0,0,0,.281-.354l2.981-6.415a.943.943,0,0,1,.335-.392.864.864,0,0,1,.958,0,.964.964,0,0,1,.335.392l2.981,6.413a.97.97,0,0,0,.281.353.879.879,0,0,0,.4.174L416.7,55.3a.879.879,0,0,1,.455.217.967.967,0,0,1,.278.44,1.022,1.022,0,0,1,.018.53.986.986,0,0,1-.249.46l-4.821,4.993a.98.98,0,0,0-.229.392,1.038,1.038,0,0,0-.032.461l1.139,7.05a1.018,1.018,0,0,1-.052.528.961.961,0,0,1-.308.418.874.874,0,0,1-.469.182.863.863,0,0,1-.489-.109l-5.958-3.329a.862.862,0,0,0-.845,0Z" transform="translate(-342.765 -46.79)" fill="rgba(17,17,17,0.2)"/><path d="M405.138,67.533l-5.96,3.329a.865.865,0,0,1-.489.108.878.878,0,0,1-.468-.182.957.957,0,0,1-.307-.418,1.03,1.03,0,0,1-.054-.527L399,62.794a1.023,1.023,0,0,0-.031-.462.969.969,0,0,0-.23-.393l-4.822-4.994a.985.985,0,0,1-.249-.46,1.021,1.021,0,0,1,.018-.53.966.966,0,0,1,.278-.44.885.885,0,0,1,.455-.217l6.661-1.029a.881.881,0,0,0,.4-.174.956.956,0,0,0,.281-.354l2.981-6.415a.943.943,0,0,1,.335-.392.864.864,0,0,1,.958,0,.964.964,0,0,1,.335.392l2.981,6.413a.97.97,0,0,0,.281.353.879.879,0,0,0,.4.174L416.7,55.3a.879.879,0,0,1,.455.217.967.967,0,0,1,.278.44,1.022,1.022,0,0,1,.018.53.986.986,0,0,1-.249.46l-4.821,4.993a.98.98,0,0,0-.229.392,1.038,1.038,0,0,0-.032.461l1.139,7.05a1.018,1.018,0,0,1-.052.528.961.961,0,0,1-.308.418.874.874,0,0,1-.469.182.863.863,0,0,1-.489-.109l-5.958-3.329a.862.862,0,0,0-.845,0Z" transform="translate(-342.765 -46.79)" fill="#fcbf02"/><path d="M423.138,67.533l-5.96,3.329a.865.865,0,0,1-.489.108.878.878,0,0,1-.468-.182.957.957,0,0,1-.307-.418,1.029,1.029,0,0,1-.054-.527L417,62.794a1.022,1.022,0,0,0-.031-.462.97.97,0,0,0-.23-.393l-4.822-4.994a.984.984,0,0,1-.249-.46,1.021,1.021,0,0,1,.018-.53.967.967,0,0,1,.278-.44.885.885,0,0,1,.455-.217l6.661-1.029a.88.88,0,0,0,.4-.174.955.955,0,0,0,.281-.354l2.98-6.415a.944.944,0,0,1,.335-.392.864.864,0,0,1,.958,0,.964.964,0,0,1,.335.392l2.981,6.413a.97.97,0,0,0,.281.353.878.878,0,0,0,.4.174L434.7,55.3a.879.879,0,0,1,.455.217.967.967,0,0,1,.279.44,1.022,1.022,0,0,1,.018.53.986.986,0,0,1-.249.46l-4.821,4.993a.98.98,0,0,0-.229.392,1.039,1.039,0,0,0-.033.461l1.139,7.05a1.018,1.018,0,0,1-.052.528.961.961,0,0,1-.308.418.874.874,0,0,1-.469.182.863.863,0,0,1-.489-.109l-5.958-3.329a.862.862,0,0,0-.845,0Z" transform="translate(-335.326 -46.79)" fill="rgba(17,17,17,0.2)"/><path d="M423.138,67.533l-5.96,3.329a.865.865,0,0,1-.489.108.878.878,0,0,1-.468-.182.957.957,0,0,1-.307-.418,1.029,1.029,0,0,1-.054-.527L417,62.794a1.022,1.022,0,0,0-.031-.462.97.97,0,0,0-.23-.393l-4.822-4.994a.984.984,0,0,1-.249-.46,1.021,1.021,0,0,1,.018-.53.967.967,0,0,1,.278-.44.885.885,0,0,1,.455-.217l6.661-1.029a.88.88,0,0,0,.4-.174.955.955,0,0,0,.281-.354l2.98-6.415a.944.944,0,0,1,.335-.392.864.864,0,0,1,.958,0,.964.964,0,0,1,.335.392l2.981,6.413a.97.97,0,0,0,.281.353.878.878,0,0,0,.4.174L434.7,55.3a.879.879,0,0,1,.455.217.967.967,0,0,1,.279.44,1.022,1.022,0,0,1,.018.53.986.986,0,0,1-.249.46l-4.821,4.993a.98.98,0,0,0-.229.392,1.039,1.039,0,0,0-.033.461l1.139,7.05a1.018,1.018,0,0,1-.052.528.961.961,0,0,1-.308.418.874.874,0,0,1-.469.182.863.863,0,0,1-.489-.109l-5.958-3.329a.862.862,0,0,0-.845,0Z" transform="translate(-335.326 -46.79)" fill="#fcbf02"/><path d="M441.138,67.533l-5.96,3.329a.865.865,0,0,1-.489.108.878.878,0,0,1-.468-.182.957.957,0,0,1-.307-.418,1.03,1.03,0,0,1-.054-.527L435,62.794a1.023,1.023,0,0,0-.031-.462.969.969,0,0,0-.23-.393l-4.822-4.994a.984.984,0,0,1-.249-.46,1.021,1.021,0,0,1,.018-.53.967.967,0,0,1,.278-.44.886.886,0,0,1,.455-.217l6.661-1.029a.88.88,0,0,0,.4-.174.956.956,0,0,0,.281-.354l2.98-6.415a.943.943,0,0,1,.335-.392.864.864,0,0,1,.958,0,.964.964,0,0,1,.335.392l2.981,6.413a.97.97,0,0,0,.281.353.879.879,0,0,0,.4.174L452.7,55.3a.879.879,0,0,1,.455.217.966.966,0,0,1,.278.44,1.021,1.021,0,0,1,.018.53.986.986,0,0,1-.249.46l-4.821,4.993a.98.98,0,0,0-.229.392,1.039,1.039,0,0,0-.033.461l1.139,7.05a1.018,1.018,0,0,1-.052.528.961.961,0,0,1-.308.418.874.874,0,0,1-.469.182.863.863,0,0,1-.489-.109l-5.958-3.329a.862.862,0,0,0-.845,0Z" transform="translate(-327.888 -46.79)" fill="rgba(17,17,17,0.2)"/><path d="M441.138,67.533l-5.96,3.329a.865.865,0,0,1-.489.108.878.878,0,0,1-.468-.182.957.957,0,0,1-.307-.418,1.03,1.03,0,0,1-.054-.527L435,62.794a1.023,1.023,0,0,0-.031-.462.969.969,0,0,0-.23-.393l-4.822-4.994a.984.984,0,0,1-.249-.46,1.021,1.021,0,0,1,.018-.53.967.967,0,0,1,.278-.44.886.886,0,0,1,.455-.217l6.661-1.029a.88.88,0,0,0,.4-.174.956.956,0,0,0,.281-.354l2.98-6.415a.943.943,0,0,1,.335-.392.864.864,0,0,1,.958,0,.964.964,0,0,1,.335.392l2.981,6.413a.97.97,0,0,0,.281.353.879.879,0,0,0,.4.174L452.7,55.3a.879.879,0,0,1,.455.217.966.966,0,0,1,.278.44,1.021,1.021,0,0,1,.018.53.986.986,0,0,1-.249.46l-4.821,4.993a.98.98,0,0,0-.229.392,1.039,1.039,0,0,0-.033.461l1.139,7.05a1.018,1.018,0,0,1-.052.528.961.961,0,0,1-.308.418.874.874,0,0,1-.469.182.863.863,0,0,1-.489-.109l-5.958-3.329a.862.862,0,0,0-.845,0Z" transform="translate(-327.888 -46.79)" fill="#fcbf02"/></g></svg>