<svg id="Group_395" data-name="Group 395" xmlns="http://www.w3.org/2000/svg" width="50" height="50" viewBox="0 0 50 50">
  <g id="Ellipse_15" data-name="Ellipse 15" fill="none" stroke="#cb1212" stroke-width="1">
    <circle cx="25" cy="25" r="25" stroke="none"/>
    <circle cx="25" cy="25" r="24.5" fill="none"/>
  </g>
  <path id="Icon_awesome-phone-alt" data-name="Icon awesome-phone-alt" d="M18.825,13.693l-4.239-1.817a.908.908,0,0,0-1.06.261l-1.877,2.294A14.028,14.028,0,0,1,4.943,7.725L7.236,5.848A.906.906,0,0,0,7.5,4.788L5.681.549A.914.914,0,0,0,4.64.023L.7.932a.908.908,0,0,0-.7.885A17.559,17.559,0,0,0,17.561,19.378a.908.908,0,0,0,.886-.7l.908-3.936A.919.919,0,0,0,18.825,13.693Z" transform="translate(15.311 16.057)" fill="#cb1212"/>
</svg>
