<svg xmlns="http://www.w3.org/2000/svg" xmlns:xlink="http://www.w3.org/1999/xlink" width="386.758" height="83.145" viewBox="0 0 386.758 83.145">
  <defs>
    <linearGradient id="linear-gradient" x1="0.196" y1="-0.357" x2="0.89" y2="1.293" gradientUnits="objectBoundingBox">
      <stop offset="0" stop-color="#ff1a19"/>
      <stop offset="0.34" stop-color="#ea1515"/>
      <stop offset="1" stop-color="#ba0c0c"/>
    </linearGradient>
    <linearGradient id="linear-gradient-2" x1="0.214" y1="-0.106" x2="1.016" y2="2.01" xlink:href="#linear-gradient"/>
    <clipPath id="clip-path">
      <path id="Path_67" data-name="Path 67" d="M128.219,831.187l4.242,2.449,4.242-2.449,17.123-9.886,29.887-17.255v30.319l-36,20.786L136.7,848.795l11.008-6.355,17.069-9.855,7.926-4.576v-4.9l-10.047,5.8-3.329,1.922-11.619,6.709-4.242,2.449-11.008,6.355-20.753-11.982v-6.355l66.5-38.395,5.5,3.177v6.356Z" transform="translate(-111.708 -789.614)" fill="url(#linear-gradient)" clip-rule="evenodd"/>
    </clipPath>
    <linearGradient id="linear-gradient-4" x1="0.15" y1="-0.334" x2="0.843" y2="1.317" xlink:href="#linear-gradient"/>
    <clipPath id="clip-path-2">
      <path id="Path_69" data-name="Path 69" d="M122.715,802.047v4.9L162.96,783.71l11.008,6.355-62.26,35.946V795.692l36-20.786,11.008,6.355Z" transform="translate(-111.708 -774.906)" fill="url(#linear-gradient-2)" clip-rule="evenodd"/>
    </clipPath>
    <linearGradient id="linear-gradient-6" x1="0.26" y1="-0.132" x2="1.062" y2="1.984" xlink:href="#linear-gradient"/>
    <clipPath id="clip-path-3">
      <path id="Path_71" data-name="Path 71" d="M178.07,833.956v-29.09L152.879,819.41l9.942,5.74,5.307-3.063v6.128Zm0-35.218V793l-4.972-2.87-35.471,20.479,9.944,5.74Z" transform="translate(-137.628 -790.128)" clip-rule="evenodd"/>
    </clipPath>
    <clipPath id="clip-path-4">
      <path id="Path_73" data-name="Path 73" d="M137.345,810.443l35.469-20.478-9.942-5.74L127.4,804.7Zm20.22-29.284-9.942-5.74L112.152,795.9l9.944,5.74Z" transform="translate(-112.152 -775.419)" clip-rule="evenodd"/>
    </clipPath>
  </defs>
  <g id="Group_393" data-name="Group 393" transform="translate(1532.67 -11402)">
    <g id="Group_18" data-name="Group 18" transform="translate(-1431.321 11423.187)">
      <g id="Group_17" data-name="Group 17">
        <path id="Path_53" data-name="Path 53" d="M191.055,828.952a8.732,8.732,0,0,1-2.475-6.457V801.616a8.937,8.937,0,1,1,17.865,0v4.412h-5.6v-4.412a3.612,3.612,0,0,0-.916-2.583,3.379,3.379,0,0,0-4.735,0,3.606,3.606,0,0,0-.914,2.583V822.5a3.606,3.606,0,0,0,.914,2.582,3.379,3.379,0,0,0,4.735,0,3.612,3.612,0,0,0,.916-2.582v-5.382h5.6V822.5a9.137,9.137,0,0,1-15.39,6.457Z" transform="translate(-188.58 -792.683)" fill="#fff"/>
        <path id="Path_54" data-name="Path 54" d="M220.775,830.8l-4.143-15.552h-2.96V830.8h-5.7V793.135H216.9a8.745,8.745,0,0,1,6.512,2.449,8.9,8.9,0,0,1,2.422,6.538v4.144a9.876,9.876,0,0,1-1.023,4.573,7.622,7.622,0,0,1-2.906,3.122L226.7,830.8Zm-7.1-20.933h2.96a3.182,3.182,0,0,0,3.5-3.5v-4.359a3.182,3.182,0,0,0-3.5-3.5h-2.96Z" transform="translate(-184.884 -792.597)" fill="#fff"/>
        <path id="Path_55" data-name="Path 55" d="M227.628,793.135h16.2v5.382H233.332V809.01h8.34v5.38h-8.34v11.031h10.493V830.8h-16.2Z" transform="translate(-181.136 -792.597)" fill="#fff"/>
        <path id="Path_56" data-name="Path 56" d="M257.246,822.463h-6.134l-1.238,8.34h-5.7l6.241-37.668h7.641L264.3,830.8h-5.813Zm-.754-5.489-2.313-15.768-2.315,15.768Z" transform="translate(-177.983 -792.597)" fill="#fff"/>
        <path id="Path_57" data-name="Path 57" d="M261.344,793.135h18.188v5.382H273.29V830.8h-5.7V798.517h-6.242Z" transform="translate(-174.709 -792.597)" fill="#fff"/>
        <path id="Path_58" data-name="Path 58" d="M280.325,793.135h5.7V830.8h-5.7Z" transform="translate(-171.09 -792.597)" fill="#fff"/>
        <path id="Path_59" data-name="Path 59" d="M308.946,793.135,302.7,830.8h-7.64l-6.242-37.668h5.811l4.305,29.6,4.3-29.6Z" transform="translate(-169.471 -792.597)" fill="#fff"/>
        <path id="Path_60" data-name="Path 60" d="M309.43,793.135h16.2v5.382H315.134V809.01h8.34v5.38h-8.34v11.031h10.493V830.8h-16.2Z" transform="translate(-165.542 -792.597)" fill="#fff"/>
        <path id="Path_61" data-name="Path 61" d="M339.422,830.244a8.308,8.308,0,0,1-3.255-3.282,9.753,9.753,0,0,1-1.156-4.79v-1.345l5.488-.592v1.4a4.951,4.951,0,0,0,.969,3.229,3.281,3.281,0,0,0,2.69,1.183,3.661,3.661,0,0,0,2.665-.968,3.514,3.514,0,0,0,1-2.637,6.465,6.465,0,0,0-1.05-3.5,27.811,27.811,0,0,0-4.17-4.628,33.176,33.176,0,0,1-5.73-6.619,11.245,11.245,0,0,1-1.534-5.758,9.554,9.554,0,0,1,2.313-6.753,9.271,9.271,0,0,1,12.7.026,9.662,9.662,0,0,1,2.313,6.781v.969l-5.488.592v-1.076a5.613,5.613,0,0,0-.807-3.283,2.672,2.672,0,0,0-2.315-1.13,2.921,2.921,0,0,0-2.314.914,3.956,3.956,0,0,0-.807,2.691,6.141,6.141,0,0,0,1.076,3.417,34.24,34.24,0,0,0,4.143,4.708,39.515,39.515,0,0,1,5.73,6.753,10.725,10.725,0,0,1,1.534,5.623,9.765,9.765,0,0,1-1.156,4.79A8.318,8.318,0,0,1,349,830.244a10.281,10.281,0,0,1-9.579,0Z" transform="translate(-160.665 -792.683)" fill="#fff"/>
        <path id="Path_62" data-name="Path 62" d="M373.446,827.553v5.489a7.814,7.814,0,0,1-3.391-.647,4.916,4.916,0,0,1-2.152-2.044,9.6,9.6,0,0,1-4.628,1.076,9,9,0,0,1-6.619-2.5,8.854,8.854,0,0,1-2.529-6.591V801.777a8.856,8.856,0,0,1,2.529-6.591,10,10,0,0,1,13.237,0,8.86,8.86,0,0,1,2.529,6.591v20.556a9.9,9.9,0,0,1-1.076,4.681A3.413,3.413,0,0,0,373.446,827.553Zm-6.727-25.776a3.845,3.845,0,0,0-.914-2.744,3.788,3.788,0,0,0-5.058,0,3.841,3.841,0,0,0-.916,2.744v20.556a3.842,3.842,0,0,0,.916,2.744,3.788,3.788,0,0,0,5.058,0,3.845,3.845,0,0,0,.914-2.744Z" transform="translate(-157.021 -792.683)" fill="#fff"/>
        <path id="Path_63" data-name="Path 63" d="M376.986,828.893a8.572,8.572,0,0,1-2.477-6.377V793.135h5.7v29.381a3.478,3.478,0,0,0,.888,2.529,3.318,3.318,0,0,0,4.575,0,3.478,3.478,0,0,0,.887-2.529V793.135h5.6v29.381a8.678,8.678,0,0,1-2.422,6.377,8.535,8.535,0,0,1-6.35,2.448A8.712,8.712,0,0,1,376.986,828.893Z" transform="translate(-153.135 -792.597)" fill="#fff"/>
        <path id="Path_64" data-name="Path 64" d="M405.755,822.463H399.62l-1.237,8.34h-5.7l6.242-37.668h7.641L412.8,830.8h-5.813ZM405,816.974l-2.315-15.768-2.315,15.768Z" transform="translate(-149.671 -792.597)" fill="#fff"/>
        <path id="Path_65" data-name="Path 65" d="M413.288,793.135h8.932a8.742,8.742,0,0,1,6.51,2.449,8.891,8.891,0,0,1,2.422,6.538v19.694a8.893,8.893,0,0,1-2.422,6.539,8.743,8.743,0,0,1-6.51,2.448h-8.932Zm8.663,32.286a3.183,3.183,0,0,0,3.5-3.5V802.014a3.183,3.183,0,0,0-3.5-3.5h-2.96v26.9Z" transform="translate(-145.743 -792.597)" fill="#fff"/>
      </g>
    </g>
    <g id="Group_28" data-name="Group 28" transform="translate(-1532.67 11402)">
      <g id="Group_23" data-name="Group 23">
        <g id="Group_20" data-name="Group 20" transform="translate(0 17.609)">
          <path id="Path_66" data-name="Path 66" d="M128.219,831.187l4.242,2.449,4.242-2.449,17.123-9.886,29.887-17.255v30.319l-36,20.786L136.7,848.795l11.008-6.355,17.069-9.855,7.926-4.576v-4.9l-10.047,5.8-3.329,1.922-11.619,6.709-4.242,2.449-11.008,6.355-20.753-11.982v-6.355l66.5-38.395,5.5,3.177v6.356Z" transform="translate(-111.708 -789.614)" fill-rule="evenodd" fill="url(#linear-gradient)"/>
          <g id="Group_19" data-name="Group 19" clip-path="url(#clip-path)">
            <rect id="Rectangle_11" data-name="Rectangle 11" width="72.005" height="65.536" fill="url(#linear-gradient-4)"/>
          </g>
        </g>
        <g id="Group_22" data-name="Group 22">
          <path id="Path_68" data-name="Path 68" d="M122.715,802.047v4.9L162.96,783.71l11.008,6.355-62.26,35.946V795.692l36-20.786,11.008,6.355Z" transform="translate(-111.708 -774.906)" fill-rule="evenodd" fill="url(#linear-gradient-2)"/>
          <g id="Group_21" data-name="Group 21" clip-path="url(#clip-path-2)">
            <rect id="Rectangle_12" data-name="Rectangle 12" width="62.26" height="51.105" fill="url(#linear-gradient-6)"/>
          </g>
        </g>
      </g>
      <g id="Group_25" data-name="Group 25" transform="translate(31.031 18.223)" opacity="0.11">
        <path id="Path_70" data-name="Path 70" d="M178.07,833.956v-29.09L152.879,819.41l9.942,5.74,5.307-3.063v6.128Zm0-35.218V793l-4.972-2.87-35.471,20.479,9.944,5.74Z" transform="translate(-137.628 -790.128)" fill-rule="evenodd"/>
        <g id="Group_24" data-name="Group 24" clip-path="url(#clip-path-3)">
          <rect id="Rectangle_13" data-name="Rectangle 13" width="40.442" height="43.828" transform="translate(0.001 0)"/>
        </g>
      </g>
      <g id="Group_27" data-name="Group 27" transform="translate(0.532 0.615)" opacity="0.11">
        <path id="Path_72" data-name="Path 72" d="M137.345,810.443l35.469-20.478-9.942-5.74L127.4,804.7Zm20.22-29.284-9.942-5.74L112.152,795.9l9.944,5.74Z" transform="translate(-112.152 -775.419)" fill-rule="evenodd"/>
        <g id="Group_26" data-name="Group 26" clip-path="url(#clip-path-4)">
          <rect id="Rectangle_14" data-name="Rectangle 14" width="60.662" height="35.024" transform="translate(0.001 0)"/>
        </g>
      </g>
    </g>
  </g>
</svg>
