<svg xmlns="http://www.w3.org/2000/svg" width="38.875" height="30.236" viewBox="0 0 38.875 30.236">
  <path id="Icon_awesome-cc-mastercard" data-name="Icon awesome-cc-mastercard" d="M32.592,27.785a.757.757,0,1,1-.756-.79A.754.754,0,0,1,32.592,27.785ZM11.615,27a.792.792,0,1,0,.736.79A.746.746,0,0,0,11.615,27Zm7.93-.02a.626.626,0,0,0-.641.587h1.289A.62.62,0,0,0,19.546,26.975Zm7.276.02a.79.79,0,1,0,.756.79A.746.746,0,0,0,26.821,27Zm7.147,1.762c0,.02.02.034.02.074,0,.02-.02.034-.02.074a.237.237,0,0,0-.034.054.087.087,0,0,1-.074.034c-.02.02-.034.02-.074.02a.134.134,0,0,1-.074-.02c-.02,0-.034-.02-.054-.034s-.034-.034-.034-.054a.123.123,0,0,1-.02-.074c0-.034,0-.054.02-.074a.127.127,0,0,1,.034-.074.237.237,0,0,1,.054-.034.123.123,0,0,1,.074-.02c.034,0,.054,0,.074.02s.054.02.074.034S33.948,28.723,33.969,28.757Zm-.148.094c.034,0,.034-.02.054-.02a.082.082,0,0,0,0-.108c-.02,0-.034-.02-.074-.02h-.108v.236h.054v-.094h.02l.074.094h.054l-.074-.088ZM38.875,5.56V29.317a3.24,3.24,0,0,1-3.24,3.24H3.24A3.24,3.24,0,0,1,0,29.317V5.56A3.24,3.24,0,0,1,3.24,2.32h32.4A3.24,3.24,0,0,1,38.875,5.56ZM4.319,14.982A9.343,9.343,0,0,0,18.83,22.77a10.065,10.065,0,0,1,0-15.557A9.343,9.343,0,0,0,4.319,14.982Zm15.118,7.343a9.345,9.345,0,0,0,0-14.679A9.345,9.345,0,0,0,19.438,22.325Zm-9.6,5.15a.946.946,0,0,0-.992-.992.965.965,0,0,0-.864.439.9.9,0,0,0-.823-.439.857.857,0,0,0-.715.364v-.3H5.885v2.477h.553c0-1.276-.169-2.038.607-2.038.688,0,.553.688.553,2.038h.533c0-1.235-.169-2.038.607-2.038.688,0,.553.675.553,2.038h.553V27.474Zm3.03-.925h-.533v.3a.973.973,0,0,0-.79-.364,1.3,1.3,0,0,0,0,2.605.936.936,0,0,0,.79-.364v.31h.533ZM15.6,28.278c0-1.012-1.546-.553-1.546-1.026,0-.385.8-.324,1.249-.074l.223-.439c-.634-.412-2.038-.4-2.038.553s1.546.56,1.546,1.012c0,.425-.911.391-1.4.054l-.236.425C14.153,29.3,15.6,29.189,15.6,28.278Zm2.389.628-.148-.459c-.256.142-.823.3-.823-.277v-1.12H17.9v-.5h-.884v-.756h-.553v.756h-.513v.493h.513V28.17c0,1.188,1.168.972,1.525.736Zm.9-.9H20.74c0-1.093-.5-1.525-1.174-1.525a1.215,1.215,0,0,0-1.228,1.3,1.347,1.347,0,0,0,2.281.958l-.256-.4C19.836,28.764,19.039,28.723,18.884,28Zm3.989-1.451a.792.792,0,0,0-1.026.3v-.3h-.553v2.477h.553v-1.4a.563.563,0,0,1,.864-.567Zm.715,1.235c0-.769.783-1.019,1.4-.567l.256-.439a1.336,1.336,0,1,0,0,2.025l-.256-.439C24.365,28.8,23.588,28.541,23.588,27.785Zm4.5-1.235h-.553v.3a1.227,1.227,0,1,0,0,1.876v.31h.553Zm2.274,0a.811.811,0,0,0-1.026.3v-.3h-.533v2.477h.533v-1.4a.566.566,0,0,1,.864-.567Zm2.72-1.006h-.533v1.3a1.227,1.227,0,1,0,0,1.876v.31h.533Zm.513-5.069v.31h.054v-.31h.128v-.054h-.31v.054H33.6Zm.445,8.355a.206.206,0,0,0-.02-.108c-.02-.02-.034-.054-.054-.074s-.054-.034-.074-.054c-.034,0-.074-.02-.108-.02a.717.717,0,0,1-.094.02.352.352,0,0,0-.074.054.106.106,0,0,0-.054.074.206.206,0,0,0-.02.108.2.2,0,0,0,.02.094.106.106,0,0,0,.054.074.234.234,0,0,0,.074.054.183.183,0,0,0,.094.02.206.206,0,0,0,.108-.02c.02-.02.054-.034.074-.054s.034-.054.054-.074A.2.2,0,0,0,34.043,28.831Zm.216-8.416h-.094l-.108.236-.108-.236h-.094v.364h.054V20.5l.108.236h.074l.094-.236v.277h.074Zm.3-5.433A9.343,9.343,0,0,0,20.045,7.207a10.065,10.065,0,0,1,0,15.557,9.343,9.343,0,0,0,14.511-7.782Z" transform="translate(0 -2.32)" fill="#fcfcfc"/>
</svg>
