<svg xmlns="http://www.w3.org/2000/svg" width="53.932" height="53.928" viewBox="0 0 53.932 53.928">
  <g id="Group_239" data-name="Group 239" transform="translate(-1501.037 -6031.462)">
    <path id="Path_440" data-name="Path 440" d="M961.67,66.9h15.278c12.732,0,17.829-5.093,17.829-17.825V33.795c0-12.732-5.1-17.825-17.829-17.825H961.67c-12.732,0-17.825,5.093-17.825,17.825V49.073C943.845,61.805,948.938,66.9,961.67,66.9Z" transform="translate(558.692 6016.993)" fill="#d11413" stroke="#111" stroke-linecap="round" stroke-linejoin="round" stroke-width="3" stroke-dasharray="29.09 2.91"/>
    <path id="Path_436" data-name="Path 436" d="M976.023,37.318h13.369" transform="translate(552.92 6013.163)" fill="none" stroke="#fff" stroke-linecap="round" stroke-linejoin="round" stroke-width="3" stroke-dasharray="29.09 2.91"/>
    <path id="Path_437" data-name="Path 437" d="M957.436,36.483l1.91,1.91,5.73-5.729" transform="translate(556.254 6013.998)" fill="none" stroke="#fff" stroke-linecap="round" stroke-linejoin="round" stroke-width="3" stroke-dasharray="29.09 2.91"/>
    <path id="Path_438" data-name="Path 438" d="M976.023,59.039h13.369" transform="translate(552.92 6009.267)" fill="none" stroke="#fff" stroke-linecap="round" stroke-linejoin="round" stroke-width="3" stroke-dasharray="29.09 2.91"/>
    <path id="Path_439" data-name="Path 439" d="M957.436,58.2l1.91,1.91,5.73-5.729" transform="translate(556.254 6010.102)" fill="none" stroke="#fff" stroke-linecap="round" stroke-linejoin="round" stroke-width="3"/>
  </g>
</svg>
