<svg xmlns="http://www.w3.org/2000/svg" width="64.71" height="58.941" viewBox="0 0 64.71 58.941">
  <g id="Group_236" data-name="Group 236" transform="translate(1.47 1.419)">
    <path id="Path_421" data-name="Path 421" d="M225.061,42.877l-3.028,12.331c-2.6,10.649-7.726,14.956-17.369,14.071a33.9,33.9,0,0,1-5.006-.8l-5.192-1.18c-12.888-2.92-16.874-9-13.845-21.328l3.028-12.36a29.929,29.929,0,0,1,2.288-6.49c3.615-7.139,9.765-9.056,20.087-6.726l5.162,1.151C224.134,24.44,228.09,30.546,225.061,42.877Z" transform="translate(-164.26 -19.459)" fill="#d11413" stroke="#111" stroke-linecap="round" stroke-linejoin="round" stroke-width="3" stroke-dasharray="30 3"/>
    <path id="Path_422" data-name="Path 422" d="M204.878,69.174a29.6,29.6,0,0,1-7.263,3.186l-4.883,1.534c-12.269,3.776-18.728.619-22.715-11.092l-3.956-11.652c-3.956-11.711-.679-17.906,11.59-21.682l4.883-1.534a32.748,32.748,0,0,1,3.616-.914,29.93,29.93,0,0,0-2.288,6.49l-3.028,12.36c-3.029,12.331.958,18.408,13.845,21.328l5.192,1.18A33.916,33.916,0,0,0,204.878,69.174Z" transform="translate(-164.474 -19.353)" fill="none" stroke="#111" stroke-linecap="round" stroke-linejoin="round" stroke-width="3" stroke-dasharray="30 3" fill-rule="evenodd"/>
    <path id="Path_423" data-name="Path 423" d="M196.943,37l14.989,3.628" transform="translate(-164.017 -19.213)" fill="none" stroke="#fff" stroke-linecap="round" stroke-linejoin="round" stroke-width="3" stroke-dasharray="30 3"/>
    <path id="Path_424" data-name="Path 424" d="M193.956,48.254l8.962,2.183" transform="translate(-164.059 -19.054)" fill="none" stroke="#fff" stroke-linecap="round" stroke-linejoin="round" stroke-width="3" stroke-dasharray="30 3"/>
  </g>
</svg>
