<svg width="355" height="401" viewBox="0 0 355 401" fill="none" xmlns="http://www.w3.org/2000/svg">
<path d="M16.53 82.4206L162.525 5.66463C171.797 0.778456 183.226 0.778456 192.497 5.66463L338.493 82.4206C347.764 87.3068 353.479 96.3116 353.479 106.065V295.072C353.479 304.826 347.764 313.831 338.493 318.717L192.497 395.473C183.226 400.359 171.797 400.359 162.525 395.473L16.53 318.717C7.25878 313.831 1.54395 304.826 1.54395 295.072V106.065C1.54395 96.2929 7.25878 87.2881 16.53 82.4206Z" fill="white" stroke="#930043" stroke-width="2.23497" stroke-miterlimit="10"/>
<path d="M330.029 286.548C330.029 294.07 325.585 301.085 318.403 304.846L187.532 373.546C180.351 377.307 171.441 377.307 164.301 373.546L33.389 304.846C26.2076 301.085 21.7629 294.07 21.7629 286.548V269.891H14.458V286.548C14.458 296.427 20.3019 305.632 29.7263 310.571L160.638 379.29C165.33 381.76 170.618 382.994 175.906 382.994C181.174 382.994 186.442 381.76 191.154 379.29L322.066 310.571C331.49 305.632 337.334 296.427 337.334 286.548V269.891H330.05V286.548H330.029ZM322.066 90.5563L191.154 21.856C181.75 16.898 170.042 16.9167 160.638 21.856L29.7468 90.5563C20.3225 95.5142 14.4786 104.719 14.4786 114.598V208.237H21.7835V114.598C21.7835 107.076 26.2281 100.061 33.4096 96.3L164.26 27.5997C171.441 23.8392 180.351 23.8392 187.491 27.5997L318.403 96.3C325.585 100.061 330.029 107.076 330.029 114.598V208.237H337.314V114.598C337.334 104.719 331.49 95.5142 322.066 90.5563Z" fill="#930043"/>
<path d="M103.651 96.3154V78.2431H107.221L109.783 92.0797L112.344 78.2431H115.914V96.3154H113.332V82.0552L110.751 96.3154H108.814L106.233 82.0552V96.3154H103.651ZM124.808 96.497C123.9 96.497 123.12 96.3591 122.468 96.0835C121.822 95.8078 121.308 95.4044 120.925 94.8733C120.542 94.3421 120.263 93.7202 120.088 93.0075C119.913 92.2881 119.826 91.4544 119.826 90.5065V83.9512C119.826 83.0032 119.913 82.1762 120.088 81.4703C120.263 80.7643 120.542 80.1525 120.925 79.6348C121.308 79.1104 121.822 78.7171 122.468 78.4549C123.12 78.1926 123.9 78.0615 124.808 78.0615C126.569 78.0615 127.84 78.5658 128.62 79.5743C129.4 80.5828 129.79 82.0418 129.79 83.9512V90.5065C129.79 91.441 129.699 92.268 129.517 92.9874C129.343 93.7 129.064 94.3253 128.68 94.8632C128.297 95.3943 127.779 95.8011 127.127 96.0835C126.482 96.3591 125.709 96.497 124.808 96.497ZM122.922 93.5622C123.271 94.1068 123.9 94.3791 124.808 94.3791C125.715 94.3791 126.341 94.1068 126.683 93.5622C127.033 93.0176 127.208 92.2142 127.208 91.1519V83.3058C127.208 82.2569 127.036 81.4736 126.694 80.9559C126.351 80.4382 125.722 80.1794 124.808 80.1794C123.893 80.1794 123.265 80.4382 122.922 80.9559C122.579 81.4736 122.407 82.2569 122.407 83.3058V91.1519C122.407 92.2142 122.579 93.0176 122.922 93.5622ZM138.411 96.497C136.784 96.497 135.54 96.0196 134.679 95.0649C133.825 94.1102 133.348 92.8058 133.247 91.1519L135.829 90.5065C135.957 93.0882 136.817 94.3791 138.411 94.3791C139.702 94.3791 140.347 93.7337 140.347 92.4428C140.347 92.0595 140.293 91.7066 140.186 91.3839C140.085 91.0544 139.927 90.7552 139.712 90.4863C139.497 90.2106 139.302 89.9921 139.127 89.8308C138.952 89.6627 138.713 89.4576 138.411 89.2156L135.184 86.6338C134.592 86.1699 134.118 85.5816 133.762 84.8689C133.412 84.1495 133.237 83.3326 133.237 82.4183C133.237 81.087 133.651 80.0281 134.478 79.2415C135.305 78.4549 136.4 78.0615 137.765 78.0615C139.231 78.0615 140.394 78.4212 141.255 79.1406C142.122 79.8533 142.657 80.8652 142.858 82.1762C142.878 82.3174 142.902 82.5124 142.929 82.7612L140.347 83.4066C140.34 83.2923 140.324 83.1209 140.297 82.8923C140.182 82.072 139.923 81.4165 139.52 80.9257C139.123 80.4282 138.538 80.1794 137.765 80.1794C137.147 80.1794 136.669 80.3542 136.333 80.7038C135.997 81.0467 135.829 81.5274 135.829 82.146C135.829 83.1612 136.259 84.0117 137.12 84.6975L140.347 87.2792C142.068 88.671 142.929 90.335 142.929 92.2713C142.929 93.5958 142.519 94.6312 141.698 95.3775C140.885 96.1238 139.789 96.497 138.411 96.497ZM148.393 96.3154V80.5425H145.166V78.2431H154.202V80.5425H150.975V96.3154H148.393ZM165.565 85.9884H166.21C167.286 85.9884 168.093 85.7631 168.631 85.3127C169.169 84.8555 169.437 84.1126 169.437 83.0839C169.437 82.0552 169.169 81.3156 168.631 80.8652C168.093 80.408 167.286 80.1794 166.21 80.1794H165.565V85.9884ZM162.983 96.3154V78.2431H166.21C168.133 78.2431 169.582 78.6162 170.557 79.3625C171.532 80.1088 172.019 81.3493 172.019 83.0839C172.019 84.1596 171.828 85.0605 171.444 85.7867C171.061 86.5128 170.5 87.0103 169.76 87.2792L172.665 96.3154H170.103L167.501 87.9247H165.565V96.3154H162.983ZM175.81 96.3154V78.2431H182.909V80.1794H178.391V85.9884H181.619V87.9247H178.391V94.3791H182.909V96.3154H175.81ZM188.858 96.3154L184.985 78.2431H187.567L189.473 87.9247L190.139 92.4428L190.825 87.9247L192.731 78.2431H195.312L191.44 96.3154H188.858ZM198.498 96.3154V78.2431H201.079V96.3154H198.498ZM205.495 96.3154V78.2431H212.595V80.1794H208.077V85.9884H211.304V87.9247H208.077V94.3791H212.595V96.3154H205.495ZM217.888 96.3154L214.661 78.2431H217.243L218.533 86.6338L219.189 91.7973L219.824 86.6338L221.115 78.2431H223.697L224.988 86.6338L225.623 91.7973L226.279 86.6338L227.57 78.2431H230.151L226.924 96.3154H224.342L223.051 87.9247L222.406 82.7612L221.761 87.9247L220.47 96.3154H217.888ZM233.205 96.3154V78.2431H240.305V80.1794H235.787V85.9884H239.014V87.9247H235.787V94.3791H240.305V96.3154H233.205ZM243.551 96.3154V78.2431H247.555C249.444 78.2431 250.775 78.6297 251.549 79.4028C252.328 80.176 252.718 81.5106 252.718 83.4066V90.5065C252.718 92.4898 252.322 93.9555 251.528 94.9035C250.742 95.8448 249.411 96.3154 247.535 96.3154H243.551ZM246.133 94.3791H247.555C247.978 94.3791 248.341 94.3421 248.644 94.2682C248.947 94.1875 249.192 94.0463 249.38 93.8446C249.569 93.6362 249.716 93.4412 249.824 93.2597C249.932 93.0714 250.006 92.7823 250.046 92.3924C250.093 92.0024 250.12 91.683 250.127 91.4343C250.133 91.1788 250.137 90.7855 250.137 90.2543C250.137 90.0795 250.137 89.9484 250.137 89.861V84.052C250.137 83.7226 250.133 83.4604 250.127 83.2654C250.127 83.0704 250.116 82.8418 250.096 82.5796C250.083 82.3107 250.059 82.0989 250.026 81.9443C249.992 81.7896 249.945 81.6182 249.885 81.4299C249.824 81.235 249.747 81.0837 249.653 80.9761C249.565 80.8685 249.454 80.7576 249.32 80.6433C249.192 80.5223 249.041 80.4349 248.866 80.3811C248.698 80.3206 248.499 80.2735 248.271 80.2399C248.042 80.1996 247.787 80.1794 247.504 80.1794H246.133V94.3791Z" fill="#930043"/>
<path d="M47.2085 148.481V128.379H55.6463V130.96H50.8814V136.743H54.6288V139.299H50.8814V145.95H55.6959V148.481H47.2085ZM63.2337 148.754C61.7612 148.754 60.6031 148.464 59.7593 147.885C58.9321 147.306 58.353 146.52 58.0221 145.528C57.6912 144.519 57.5258 143.36 57.5258 142.053V134.881C57.5258 133.508 57.6912 132.317 58.0221 131.308C58.353 130.298 58.9321 129.521 59.7593 128.975C60.6031 128.429 61.7612 128.156 63.2337 128.156C64.6234 128.156 65.7071 128.396 66.4847 128.876C67.2788 129.339 67.8413 130.009 68.1722 130.886C68.5031 131.763 68.6686 132.78 68.6686 133.938V135.626H65.1446V133.889C65.1446 133.326 65.1115 132.813 65.0453 132.35C64.9957 131.887 64.8385 131.523 64.5738 131.258C64.3256 130.977 63.8872 130.836 63.2585 130.836C62.6298 130.836 62.1665 130.985 61.8687 131.283C61.5875 131.564 61.4055 131.953 61.3228 132.449C61.24 132.929 61.1987 133.475 61.1987 134.087V142.823C61.1987 143.551 61.2566 144.155 61.3724 144.634C61.4882 145.098 61.695 145.453 61.9928 145.701C62.3072 145.933 62.7291 146.049 63.2585 146.049C63.8706 146.049 64.3008 145.908 64.549 145.627C64.8137 145.329 64.9791 144.94 65.0453 144.461C65.1115 143.981 65.1446 143.443 65.1446 142.848V141.036H68.6686V142.649C68.6686 143.84 68.5114 144.899 68.1971 145.826C67.8827 146.735 67.3285 147.455 66.5343 147.985C65.7567 148.498 64.6565 148.754 63.2337 148.754ZM76.6854 148.754C75.2626 148.754 74.1293 148.489 73.2855 147.96C72.4417 147.43 71.8378 146.669 71.4739 145.677C71.1099 144.684 70.9279 143.509 70.9279 142.153V134.633C70.9279 133.276 71.1099 132.118 71.4739 131.159C71.8378 130.183 72.4417 129.438 73.2855 128.925C74.1293 128.412 75.2626 128.156 76.6854 128.156C78.1414 128.156 79.2829 128.412 80.1102 128.925C80.9539 129.438 81.5578 130.183 81.9218 131.159C82.3023 132.118 82.4926 133.276 82.4926 134.633V142.177C82.4926 143.518 82.3023 144.684 81.9218 145.677C81.5578 146.653 80.9539 147.414 80.1102 147.96C79.2829 148.489 78.1414 148.754 76.6854 148.754ZM76.6854 146.049C77.2976 146.049 77.7443 145.917 78.0255 145.652C78.3233 145.387 78.5219 145.023 78.6211 144.56C78.7204 144.097 78.77 143.592 78.77 143.046V133.789C78.77 133.227 78.7204 132.722 78.6211 132.275C78.5219 131.829 78.3233 131.481 78.0255 131.233C77.7443 130.968 77.2976 130.836 76.6854 130.836C76.1064 130.836 75.6679 130.968 75.3701 131.233C75.0723 131.481 74.8738 131.829 74.7745 132.275C74.6753 132.722 74.6256 133.227 74.6256 133.789V143.046C74.6256 143.592 74.667 144.097 74.7497 144.56C74.849 145.023 75.0475 145.387 75.3453 145.652C75.6431 145.917 76.0898 146.049 76.6854 146.049ZM85.1598 148.481L85.5073 128.379H89.3043L92.1582 142.302L95.1362 128.379H98.8092L99.1814 148.481H96.4515L96.1537 134.509L93.2998 148.481H91.0911L88.1875 134.459L87.9145 148.481H85.1598ZM102.1 148.481L102.448 128.379H106.245L109.099 142.302L112.077 128.379H115.75L116.122 148.481H113.392L113.094 134.509L110.24 148.481H108.032L105.128 134.459L104.855 148.481H102.1ZM119.09 148.481V128.379H127.528V130.96H122.763V136.743H126.511V139.299H122.763V145.95H127.578V148.481H119.09ZM129.705 148.481V128.379H134.52C135.877 128.379 137.018 128.545 137.945 128.876C138.888 129.19 139.599 129.736 140.079 130.513C140.575 131.291 140.823 132.35 140.823 133.69C140.823 134.501 140.749 135.229 140.6 135.874C140.451 136.519 140.195 137.073 139.831 137.537C139.483 137.983 138.995 138.331 138.367 138.579L141.171 148.481H137.498L135.066 139.274H133.378V148.481H129.705ZM133.378 136.966H134.52C135.231 136.966 135.794 136.867 136.208 136.668C136.638 136.453 136.944 136.122 137.126 135.675C137.308 135.212 137.399 134.625 137.399 133.913C137.399 132.904 137.208 132.151 136.828 131.655C136.464 131.142 135.761 130.886 134.719 130.886H133.378V136.966ZM148.881 148.754C147.409 148.754 146.251 148.464 145.407 147.885C144.58 147.306 144.001 146.52 143.67 145.528C143.339 144.519 143.173 143.36 143.173 142.053V134.881C143.173 133.508 143.339 132.317 143.67 131.308C144.001 130.298 144.58 129.521 145.407 128.975C146.251 128.429 147.409 128.156 148.881 128.156C150.271 128.156 151.355 128.396 152.132 128.876C152.926 129.339 153.489 130.009 153.82 130.886C154.151 131.763 154.316 132.78 154.316 133.938V135.626H150.792V133.889C150.792 133.326 150.759 132.813 150.693 132.35C150.643 131.887 150.486 131.523 150.221 131.258C149.973 130.977 149.535 130.836 148.906 130.836C148.277 130.836 147.814 130.985 147.516 131.283C147.235 131.564 147.053 131.953 146.97 132.449C146.888 132.929 146.846 133.475 146.846 134.087V142.823C146.846 143.551 146.904 144.155 147.02 144.634C147.136 145.098 147.343 145.453 147.64 145.701C147.955 145.933 148.377 146.049 148.906 146.049C149.518 146.049 149.948 145.908 150.197 145.627C150.461 145.329 150.627 144.94 150.693 144.461C150.759 143.981 150.792 143.443 150.792 142.848V141.036H154.316V142.649C154.316 143.84 154.159 144.899 153.845 145.826C153.53 146.735 152.976 147.455 152.182 147.985C151.404 148.498 150.304 148.754 148.881 148.754ZM156.873 148.481V128.379H165.311V130.96H160.546V136.743H164.294V139.299H160.546V145.95H165.361V148.481H156.873ZM173.523 148.481V128.379H178.263C179.901 128.379 181.175 128.603 182.085 129.049C183.011 129.496 183.665 130.183 184.045 131.109C184.442 132.036 184.641 133.21 184.641 134.633V141.979C184.641 143.435 184.442 144.651 184.045 145.627C183.665 146.587 183.02 147.306 182.11 147.786C181.216 148.249 179.984 148.481 178.412 148.481H173.523ZM177.196 145.925H178.313C179.156 145.925 179.76 145.776 180.124 145.478C180.488 145.18 180.712 144.75 180.794 144.188C180.877 143.609 180.918 142.905 180.918 142.078V134.385C180.918 133.574 180.86 132.921 180.745 132.424C180.629 131.928 180.389 131.564 180.025 131.332C179.661 131.101 179.074 130.985 178.263 130.985H177.196V145.925ZM187.337 148.481V128.379H195.775V130.96H191.01V136.743H194.757V139.299H191.01V145.95H195.824V148.481H187.337ZM201.029 148.481L196.984 128.379H200.235L202.891 142.599L205.372 128.379H208.698L204.653 148.481H201.029ZM210.748 148.481V128.379H219.186V130.96H214.421V136.743H218.169V139.299H214.421V145.95H219.236V148.481H210.748ZM221.363 148.481V128.379H225.036V145.95H229.9V148.481H221.363ZM237.026 148.754C235.603 148.754 234.47 148.489 233.626 147.96C232.783 147.43 232.179 146.669 231.815 145.677C231.451 144.684 231.269 143.509 231.269 142.153V134.633C231.269 133.276 231.451 132.118 231.815 131.159C232.179 130.183 232.783 129.438 233.626 128.925C234.47 128.412 235.603 128.156 237.026 128.156C238.482 128.156 239.624 128.412 240.451 128.925C241.295 129.438 241.899 130.183 242.263 131.159C242.643 132.118 242.833 133.276 242.833 134.633V142.177C242.833 143.518 242.643 144.684 242.263 145.677C241.899 146.653 241.295 147.414 240.451 147.96C239.624 148.489 238.482 148.754 237.026 148.754ZM237.026 146.049C237.638 146.049 238.085 145.917 238.366 145.652C238.664 145.387 238.863 145.023 238.962 144.56C239.061 144.097 239.111 143.592 239.111 143.046V133.789C239.111 133.227 239.061 132.722 238.962 132.275C238.863 131.829 238.664 131.481 238.366 131.233C238.085 130.968 237.638 130.836 237.026 130.836C236.447 130.836 236.009 130.968 235.711 131.233C235.413 131.481 235.215 131.829 235.115 132.275C235.016 132.722 234.966 133.227 234.966 133.789V143.046C234.966 143.592 235.008 144.097 235.09 144.56C235.19 145.023 235.388 145.387 235.686 145.652C235.984 145.917 236.431 146.049 237.026 146.049ZM245.55 148.481V128.379H251.457C252.664 128.379 253.641 128.603 254.385 129.049C255.146 129.496 255.7 130.149 256.048 131.01C256.412 131.854 256.594 132.879 256.594 134.087C256.594 135.394 256.37 136.453 255.924 137.264C255.477 138.058 254.848 138.637 254.038 139.001C253.244 139.365 252.3 139.547 251.209 139.547H249.223V148.481H245.55ZM249.223 136.966H250.613C251.275 136.966 251.788 136.875 252.152 136.693C252.532 136.494 252.789 136.188 252.921 135.775C253.07 135.345 253.144 134.774 253.144 134.062C253.144 133.334 253.086 132.747 252.971 132.3C252.871 131.837 252.64 131.498 252.276 131.283C251.928 131.068 251.374 130.96 250.613 130.96H249.223V136.966ZM258.588 148.481L258.935 128.379H262.732L265.586 142.302L268.564 128.379H272.237L272.609 148.481H269.879L269.582 134.509L266.728 148.481H264.519L261.615 134.459L261.342 148.481H258.588ZM275.578 148.481V128.379H284.016V130.96H279.251V136.743H282.998V139.299H279.251V145.95H284.065V148.481H275.578ZM286.193 148.481V128.379H288.749L293.638 139.845V128.379H296.666V148.481H294.234L289.32 136.47V148.481H286.193ZM301.726 148.481V131.084H298.525V128.379H308.551V131.084H305.399V148.481H301.726ZM72.0553 185.754C70.5829 185.754 69.4247 185.464 68.581 184.885C67.7537 184.306 67.1747 183.52 66.8438 182.528C66.5129 181.519 66.3474 180.36 66.3474 179.053V171.881C66.3474 170.508 66.5129 169.317 66.8438 168.308C67.1747 167.298 67.7537 166.521 68.581 165.975C69.4247 165.429 70.5829 165.156 72.0553 165.156C73.4451 165.156 74.5287 165.396 75.3063 165.876C76.1005 166.339 76.663 167.009 76.9939 167.886C77.3248 168.763 77.4902 169.78 77.4902 170.938V172.626H73.9662V170.889C73.9662 170.326 73.9331 169.813 73.867 169.35C73.8173 168.887 73.6602 168.523 73.3954 168.258C73.1473 167.977 72.7088 167.836 72.0801 167.836C71.4514 167.836 70.9882 167.985 70.6904 168.283C70.4091 168.564 70.2271 168.953 70.1444 169.449C70.0617 169.929 70.0203 170.475 70.0203 171.087V179.823C70.0203 180.551 70.0782 181.155 70.1941 181.634C70.3099 182.098 70.5167 182.453 70.8145 182.701C71.1288 182.933 71.5507 183.049 72.0801 183.049C72.6923 183.049 73.1225 182.908 73.3706 182.627C73.6353 182.329 73.8008 181.94 73.867 181.461C73.9331 180.981 73.9662 180.443 73.9662 179.848V178.036H77.4902V179.649C77.4902 180.84 77.3331 181.899 77.0187 182.826C76.7044 183.735 76.1501 184.455 75.356 184.985C74.5784 185.498 73.4782 185.754 72.0553 185.754ZM85.5071 185.754C84.0842 185.754 82.9509 185.489 82.1072 184.96C81.2634 184.43 80.6595 183.669 80.2955 182.677C79.9315 181.684 79.7495 180.509 79.7495 179.153V171.633C79.7495 170.276 79.9315 169.118 80.2955 168.159C80.6595 167.183 81.2634 166.438 82.1072 165.925C82.9509 165.412 84.0842 165.156 85.5071 165.156C86.963 165.156 88.1046 165.412 88.9318 165.925C89.7756 166.438 90.3795 167.183 90.7435 168.159C91.124 169.118 91.3142 170.276 91.3142 171.633V179.177C91.3142 180.518 91.124 181.684 90.7435 182.677C90.3795 183.653 89.7756 184.414 88.9318 184.96C88.1046 185.489 86.963 185.754 85.5071 185.754ZM85.5071 183.049C86.1192 183.049 86.5659 182.917 86.8472 182.652C87.145 182.387 87.3435 182.023 87.4428 181.56C87.5421 181.097 87.5917 180.592 87.5917 180.046V170.789C87.5917 170.227 87.5421 169.722 87.4428 169.275C87.3435 168.829 87.145 168.481 86.8472 168.233C86.5659 167.968 86.1192 167.836 85.5071 167.836C84.928 167.836 84.4896 167.968 84.1918 168.233C83.894 168.481 83.6954 168.829 83.5962 169.275C83.4969 169.722 83.4473 170.227 83.4473 170.789V180.046C83.4473 180.592 83.4886 181.097 83.5714 181.56C83.6706 182.023 83.8692 182.387 84.167 182.652C84.4648 182.917 84.9115 183.049 85.5071 183.049ZM93.9815 185.481L94.3289 165.379H98.1259L100.98 179.302L103.958 165.379H107.631L108.003 185.481H105.273L104.975 171.509L102.121 185.481H99.9127L97.0092 171.459L96.7362 185.481H93.9815ZM110.972 185.481V165.379H116.878C118.086 165.379 119.062 165.603 119.806 166.049C120.567 166.496 121.122 167.149 121.469 168.01C121.833 168.854 122.015 169.879 122.015 171.087C122.015 172.394 121.792 173.453 121.345 174.264C120.898 175.058 120.27 175.637 119.459 176.001C118.665 176.365 117.722 176.547 116.63 176.547H114.645V185.481H110.972ZM114.645 173.966H116.034C116.696 173.966 117.209 173.875 117.573 173.693C117.953 173.494 118.21 173.188 118.342 172.775C118.491 172.345 118.566 171.774 118.566 171.062C118.566 170.334 118.508 169.747 118.392 169.3C118.293 168.837 118.061 168.498 117.697 168.283C117.35 168.068 116.795 167.96 116.034 167.96H114.645V173.966ZM121.878 185.481L125.898 165.379H129.819L133.84 185.481H130.44L129.646 180.84H126.146L125.327 185.481H121.878ZM126.519 178.507H129.249L127.884 170.07L126.519 178.507ZM135.861 185.481V165.379H138.417L143.306 176.845V165.379H146.334V185.481H143.902L138.988 173.47V185.481H135.861ZM149.484 185.481V165.379H153.107V185.481H149.484ZM156.219 185.481V165.379H164.657V167.96H159.892V173.743H163.639V176.299H159.892V182.95H164.706V185.481H156.219ZM171.897 185.754C170.689 185.754 169.68 185.522 168.869 185.059C168.058 184.579 167.446 183.884 167.033 182.974C166.619 182.064 166.387 180.948 166.338 179.624L169.489 179.004C169.522 179.781 169.613 180.468 169.762 181.064C169.928 181.659 170.168 182.122 170.482 182.453C170.813 182.768 171.243 182.925 171.773 182.925C172.368 182.925 172.79 182.751 173.038 182.404C173.286 182.04 173.41 181.585 173.41 181.039C173.41 180.162 173.212 179.442 172.815 178.88C172.418 178.317 171.888 177.755 171.227 177.192L168.695 174.959C167.984 174.346 167.413 173.668 166.983 172.924C166.569 172.163 166.362 171.228 166.362 170.119C166.362 168.531 166.826 167.307 167.752 166.446C168.679 165.586 169.944 165.156 171.549 165.156C172.492 165.156 173.278 165.305 173.907 165.603C174.536 165.884 175.032 166.281 175.396 166.794C175.776 167.307 176.058 167.894 176.24 168.556C176.422 169.201 176.537 169.888 176.587 170.616L173.46 171.162C173.427 170.533 173.353 169.97 173.237 169.474C173.137 168.978 172.947 168.589 172.666 168.308C172.401 168.026 172.004 167.886 171.475 167.886C170.929 167.886 170.507 168.068 170.209 168.432C169.928 168.779 169.787 169.218 169.787 169.747C169.787 170.425 169.928 170.988 170.209 171.435C170.49 171.865 170.896 172.311 171.425 172.775L173.932 174.983C174.759 175.678 175.462 176.497 176.041 177.44C176.637 178.367 176.934 179.492 176.934 180.815C176.934 181.775 176.719 182.627 176.289 183.372C175.876 184.116 175.288 184.703 174.527 185.134C173.783 185.547 172.906 185.754 171.897 185.754ZM185.231 185.481V165.379H188.854V185.481H185.231ZM191.966 185.481V165.379H194.522L199.411 176.845V165.379H202.439V185.481H200.007L195.093 173.47V185.481H191.966ZM216.934 185.754C215.462 185.754 214.303 185.464 213.46 184.885C212.632 184.306 212.053 183.52 211.722 182.528C211.392 181.519 211.226 180.36 211.226 179.053V171.881C211.226 170.508 211.392 169.317 211.722 168.308C212.053 167.298 212.632 166.521 213.46 165.975C214.303 165.429 215.462 165.156 216.934 165.156C218.324 165.156 219.407 165.396 220.185 165.876C220.979 166.339 221.542 167.009 221.873 167.886C222.203 168.763 222.369 169.78 222.369 170.938V172.626H218.845V170.889C218.845 170.326 218.812 169.813 218.746 169.35C218.696 168.887 218.539 168.523 218.274 168.258C218.026 167.977 217.587 167.836 216.959 167.836C216.33 167.836 215.867 167.985 215.569 168.283C215.288 168.564 215.106 168.953 215.023 169.449C214.94 169.929 214.899 170.475 214.899 171.087V179.823C214.899 180.551 214.957 181.155 215.073 181.634C215.189 182.098 215.395 182.453 215.693 182.701C216.007 182.933 216.429 183.049 216.959 183.049C217.571 183.049 218.001 182.908 218.249 182.627C218.514 182.329 218.679 181.94 218.746 181.461C218.812 180.981 218.845 180.443 218.845 179.848V178.036H222.369V179.649C222.369 180.84 222.212 181.899 221.897 182.826C221.583 183.735 221.029 184.455 220.235 184.985C219.457 185.498 218.357 185.754 216.934 185.754ZM223.909 185.481L227.929 165.379H231.85L235.87 185.481H232.47L231.676 180.84H228.177L227.358 185.481H223.909ZM228.549 178.507H231.279L229.914 170.07L228.549 178.507ZM237.892 185.481V165.379H240.448L245.337 176.845V165.379H248.365V185.481H245.933L241.019 173.47V185.481H237.892ZM250.398 185.481L254.418 165.379H258.339L262.359 185.481H258.96L258.165 180.84H254.666L253.847 185.481H250.398ZM255.038 178.507H257.768L256.403 170.07L255.038 178.507ZM264.381 185.481V165.379H269.121C270.759 165.379 272.033 165.603 272.943 166.049C273.869 166.496 274.523 167.183 274.903 168.109C275.301 169.036 275.499 170.21 275.499 171.633V178.979C275.499 180.435 275.301 181.651 274.903 182.627C274.523 183.587 273.878 184.306 272.968 184.786C272.074 185.249 270.842 185.481 269.27 185.481H264.381ZM268.054 182.925H269.171C270.015 182.925 270.618 182.776 270.982 182.478C271.346 182.18 271.57 181.75 271.652 181.188C271.735 180.609 271.777 179.905 271.777 179.078V171.385C271.777 170.574 271.719 169.921 271.603 169.424C271.487 168.928 271.247 168.564 270.883 168.332C270.519 168.101 269.932 167.985 269.121 167.985H268.054V182.925ZM276.96 185.481L280.98 165.379H284.901L288.921 185.481H285.521L284.727 180.84H281.228L280.409 185.481H276.96ZM281.6 178.507H284.33L282.965 170.07L281.6 178.507Z" fill="black"/>
<rect x="1.54395" y="216.488" width="351.935" height="44.37" fill="#930043"/>
<circle cx="178.013" cy="235.646" r="37.3111" fill="white"/>
<path d="M70.215 224.152L74.6083 233.052L84.4329 234.488L77.3239 241.412L79.0016 251.194L70.215 246.573L61.4283 251.194L63.106 241.412L55.9971 234.488L65.8216 233.052L70.215 224.152Z" fill="white"/>
<path d="M111.319 224.152L115.713 233.052L125.537 234.488L118.428 241.412L120.106 251.194L111.319 246.573L102.533 251.194L104.211 241.412L97.1016 234.488L106.926 233.052L111.319 224.152Z" fill="white"/>
<path d="M179.222 214.466L186.761 229.741L203.622 232.205L191.422 244.088L194.301 260.875L179.222 252.945L164.142 260.875L167.022 244.088L154.821 232.205L171.682 229.741L179.222 214.466Z" fill="#930043"/>
<path d="M240.994 224.152L245.388 233.052L255.212 234.488L248.103 241.412L249.781 251.194L240.994 246.573L232.208 251.194L233.885 241.412L226.776 234.488L236.601 233.052L240.994 224.152Z" fill="white"/>
<path d="M282.099 224.152L286.492 233.052L296.317 234.488L289.208 241.412L290.885 251.194L282.099 246.573L273.312 251.194L274.99 241.412L267.881 234.488L277.705 233.052L282.099 224.152Z" fill="white"/>
<g clip-path="url(#clip0_1727_2972)">
<path d="M185.953 290.624V295.378H181.463V284.549H179.879V295.378H175.125V284.549H173.54V301.452H169.05V290.624H167.466V307.791H169.05V303.037H179.879V313.865H181.463V296.962H185.953V307.791H187.538V290.624H185.953ZM179.879 301.452H175.125V296.962H179.879V301.452Z" fill="#930043"/>
<path d="M175.123 303.831H173.538V313.867H175.123V303.831Z" fill="#930043"/>
</g>
<path d="M134.625 321.946V331.439H132.505V327.879H126.143V331.439H124.023V321.946H126.143V325.506H132.505V321.946H134.625Z" fill="black"/>
<path d="M136.435 331.44V321.932H139.076V331.44H136.435Z" fill="black"/>
<path d="M151.221 324.317H146.981V331.438H144.861V324.317H140.619V321.945H151.221V324.317Z" fill="black"/>
<path d="M163.264 321.945V324.317H154.782V324.32H152.662V321.945H163.264ZM163.264 325.706V327.641H154.782V327.646H152.662V325.706H163.264ZM163.264 329.065V331.438H152.662V329.065H163.264Z" fill="black"/>
<path d="M175.684 325.019V326.097H173.564V325.23C173.564 324.727 173.198 324.317 172.748 324.317H165.082V321.945H172.937C173.153 321.945 173.362 321.973 173.564 322.026C174.577 322.291 175.375 323.183 175.614 324.32C175.659 324.544 175.684 324.778 175.684 325.019ZM168.018 329.065H175.684V331.438H167.829C167.732 331.438 167.636 331.433 167.543 331.42C167.427 331.407 167.314 331.384 167.202 331.356C166.189 331.092 165.391 330.199 165.153 329.063C165.135 328.979 165.121 328.895 165.11 328.811C165.091 328.663 165.08 328.513 165.08 328.361V325.604H167.2V328.15C167.202 328.656 167.568 329.065 168.018 329.065Z" fill="black"/>
<path d="M187.991 321.945V331.438H185.871V327.878H179.51V331.438H177.39V321.945H179.51V325.505H185.871V321.945H187.991Z" fill="black"/>
<path d="M206.012 321.945V331.438H203.892V327.878H197.53V331.438H195.41V321.945H197.53V325.505H203.892V321.945H206.012Z" fill="#930043"/>
<path d="M218.445 321.945V331.438H216.382V330.42L215.557 331.438H210.274C209.025 331.293 208.023 330.209 207.841 328.829V321.945H209.961V328.152C209.961 328.656 210.326 329.065 210.776 329.065H216.318L216.323 321.945H218.445Z" fill="#930043"/>
<path d="M230.943 327.918C230.971 328.089 230.984 328.264 230.984 328.442C230.984 328.651 230.966 328.854 230.93 329.05C230.696 330.324 229.737 331.303 228.555 331.422C228.476 331.43 228.394 331.435 228.31 331.435C228.226 331.435 228.146 331.43 228.065 331.422H222.475V331.435H220.355V329.052H220.358V327.921H220.355V325.569H220.358V324.282H220.355V321.932H228.31C229.596 321.932 230.673 322.949 230.928 324.305C230.966 324.506 230.984 324.712 230.984 324.925C230.984 325.139 230.964 325.345 230.928 325.546C230.85 325.965 230.691 326.352 230.475 326.685C230.707 327.043 230.871 327.463 230.943 327.918ZM228.864 324.925C228.864 324.584 228.617 324.305 228.31 324.305H226.74V324.282H222.478V325.569H226.74V325.546H228.31C228.41 325.546 228.501 325.518 228.583 325.467C228.751 325.36 228.864 325.157 228.864 324.925ZM228.864 328.445C228.864 328.223 228.76 328.03 228.605 327.921H222.48V329.052H228.424C228.674 328.994 228.864 328.742 228.864 328.445Z" fill="#930043"/>
<defs>
<clipPath id="clip0_1727_2972">
<rect width="20.072" height="29.3157" fill="white" transform="translate(167.468 284.549)"/>
</clipPath>
</defs>
</svg>
