<svg xmlns="http://www.w3.org/2000/svg" width="25.597" height="30.236" viewBox="0 0 25.597 30.236">
  <path id="Icon_awesome-paypal" data-name="Icon awesome-paypal" d="M7.428,19.835c-.233,1.28-1.16,7.247-1.433,8.934-.02.12-.067.167-.2.167H.82a.81.81,0,0,1-.807-.927l3.907-24.8A1.354,1.354,0,0,1,5.254,2.087c10.154,0,11.008-.247,13.6.76,4.007,1.553,4.374,5.3,2.934,9.354-1.433,4.174-4.834,5.967-9.341,6.021C9.555,18.268,7.814,17.755,7.428,19.835Zm16.382-9.594c-.12-.087-.167-.12-.2.087a15.6,15.6,0,0,1-.587,2.24C20.362,20.155,12.988,19.5,9.388,19.5a.671.671,0,0,0-.727.627C7.154,29.483,6.854,31.436,6.854,31.436a.71.71,0,0,0,.707.86h4.234a1.2,1.2,0,0,0,1.16-.993c.047-.36-.073.407.96-6.087.307-1.467.953-1.313,1.954-1.313,4.734,0,8.428-1.92,9.528-7.487.433-2.32.307-4.76-1.587-6.174Z" transform="translate(-0.006 -2.061)" fill="#fcfcfc"/>
</svg>
