<svg id="Group_126" data-name="Group 126" xmlns="http://www.w3.org/2000/svg" width="155.088" height="121.549" viewBox="0 0 155.088 121.549">
  <path id="Path_269" data-name="Path 269" d="M-114.81,519.917V419.362h0a4.041,4.041,0,0,1,1.758-3.263h0a8.745,8.745,0,0,1,3.1-1.313h0a34.786,34.786,0,0,1,7.776-.7h0a113.42,113.42,0,0,1,12.563.825h0a2.123,2.123,0,0,1,1.856,2.111h0V519.333a2.126,2.126,0,0,1-2.126,2.126h0a2.126,2.126,0,0,1-2.128-2.126h0V418.925c-2.278-.236-6.314-.588-10.165-.588h0c-3.889-.091-7.789.593-8.378,1.2h0V519.917h0a2.133,2.133,0,0,1-2.128,2.128h0a2.132,2.132,0,0,1-2.128-2.128Z" transform="translate(147.254 -414.087)" fill="#6a6a6a"/>
  <path id="Path_270" data-name="Path 270" d="M-98.02,503.682v-72h0A3.449,3.449,0,0,1-96,428.69h0a10.335,10.335,0,0,1,2.966-.9h0a47.7,47.7,0,0,1,7.635-.49h0c6.111,0,12.465.586,12.5.591h0a2.127,2.127,0,0,1,1.93,2.119h0l0,73.26a2.125,2.125,0,0,1-2.131,2.126h0a2.126,2.126,0,0,1-2.128-2.126h0v-71.3c-2.3-.169-6.323-.421-10.174-.421h0a52.008,52.008,0,0,0-5.9.281h0a10.9,10.9,0,0,0-2.472.519h0c0,3.856,0,20.5,0,36.748h0c0,17.528,0,34.587,0,34.587h0a2.126,2.126,0,0,1-2.126,2.128h0a2.127,2.127,0,0,1-2.131-2.128Z" transform="translate(167.884 -397.856)" fill="#6a6a6a"/>
  <path id="Path_271" data-name="Path 271" d="M-80.445,491.112V441.222h0a2.694,2.694,0,0,1,.978-2.044h0a4.164,4.164,0,0,1,1.3-.72h0a13.006,13.006,0,0,1,2.819-.593h0a66.944,66.944,0,0,1,7.526-.334h0c6.069,0,12.414.408,12.436.408h0a2.127,2.127,0,0,1,1.99,2.124h0l0,50.76a2.128,2.128,0,0,1-2.126,2.128h0a2.126,2.126,0,0,1-2.131-2.128h0v-48.75c-2.32-.118-6.329-.29-10.174-.29h0c-2.173,0-4.292.058-5.977.2h0a16.875,16.875,0,0,0-2.4.332h0v24.829h0v23.969h0a2.131,2.131,0,0,1-2.128,2.128h0a2.128,2.128,0,0,1-2.128-2.128Z" transform="translate(189.478 -385.282)" fill="#6a6a6a"/>
  <path id="Path_272" data-name="Path 272" d="M-122.4,531.742l-2.634-114a2.124,2.124,0,0,1,2.075-2.175h0a2.128,2.128,0,0,1,2.18,2.075h0l2.628,114a2.123,2.123,0,0,1-2.075,2.173h0l-.056,0h0a2.12,2.12,0,0,1-2.117-2.077Z" transform="translate(134.687 -412.27)" fill="#6a6a6a"/>
  <path id="Path_273" data-name="Path 273" d="M-127.237,465.853a2.125,2.125,0,0,1-2.131-2.126h0a2.128,2.128,0,0,1,2.131-2.124H23.589a2.128,2.128,0,0,1,2.131,2.124h0a2.125,2.125,0,0,1-2.131,2.126H-127.237Z" transform="translate(129.368 -355.706)" fill="#6a6a6a"/>
  <path id="Path_274" data-name="Path 274" d="M-113.331,429a2.122,2.122,0,0,1,0-3.006h0l10.517-10.526a2.131,2.131,0,0,1,3.009,0h0a2.127,2.127,0,0,1,0,3.009h0L-110.329,429a2.115,2.115,0,0,1-1.5.624h0a2.12,2.12,0,0,1-1.5-.624Z" transform="translate(148.305 -413.158)" fill="#6a6a6a"/>
  <path id="Path_275" data-name="Path 275" d="M-113.755,441.628a2.123,2.123,0,0,1-.2-3h0l20.027-22.8a2.122,2.122,0,0,1,3-.192h0a2.122,2.122,0,0,1,.194,3h0l-20.027,22.8a2.121,2.121,0,0,1-1.6.722h0a2.1,2.1,0,0,1-1.4-.528Z" transform="translate(147.659 -412.834)" fill="#6a6a6a"/>
  <path id="Path_276" data-name="Path 276" d="M-113.146,447.239a2.127,2.127,0,0,1-.236-3h0l20.753-24.263a2.13,2.13,0,0,1,3-.232h0a2.13,2.13,0,0,1,.236,3h0l-20.755,24.263a2.112,2.112,0,0,1-1.614.742h0a2.106,2.106,0,0,1-1.382-.513Z" transform="translate(148.385 -407.758)" fill="#6a6a6a"/>
  <path id="Path_277" data-name="Path 277" d="M-113.265,451.4a2.126,2.126,0,0,1-.131-3.006h0c.038-.036,19.369-21.121,20.091-21.845h0l0,0a2.121,2.121,0,0,1,3,0h0a2.125,2.125,0,0,1,0,3h0c-.165.158-5.269,5.7-10.169,11.039h0c-4.932,5.369-9.779,10.66-9.788,10.669h0a2.132,2.132,0,0,1-1.571.689h0a2.114,2.114,0,0,1-1.435-.557Z" transform="translate(148.304 -399.538)" fill="#6a6a6a"/>
  <path id="Path_278" data-name="Path 278" d="M-113.778,457.115a2.123,2.123,0,0,1-.029-3h0l21.919-22.367a2.131,2.131,0,0,1,3.011-.029h0a2.121,2.121,0,0,1,.027,3h0l-21.921,22.365a2.109,2.109,0,0,1-1.518.64h0a2.122,2.122,0,0,1-1.489-.608Z" transform="translate(147.74 -393.175)" fill="#6a6a6a"/>
  <path id="Path_279" data-name="Path 279" d="M-114.181,463a2.123,2.123,0,0,1-.011-3h0l22.8-22.948a2.124,2.124,0,0,1,3.006-.009h0a2.126,2.126,0,0,1,.007,3.006h0l-22.8,22.946a2.133,2.133,0,0,1-1.511.626h0a2.111,2.111,0,0,1-1.5-.617Z" transform="translate(147.256 -386.648)" fill="#6a6a6a"/>
  <path id="Path_280" data-name="Path 280" d="M-113.364,465.809a2.124,2.124,0,0,1,0-3.006h0L-92.4,441.829a2.131,2.131,0,0,1,3.009,0h0a2.132,2.132,0,0,1,0,3.006h0l-20.969,20.974a2.126,2.126,0,0,1-1.5.622h0a2.118,2.118,0,0,1-1.5-.622Z" transform="translate(148.265 -380.766)" fill="#6a6a6a"/>
  <path id="Path_281" data-name="Path 281" d="M-113.6,470.97a2.133,2.133,0,0,1,0-3.011h0l20.753-20.751a2.127,2.127,0,0,1,3.009,0h0a2.121,2.121,0,0,1,0,3h0l-20.758,20.758a2.108,2.108,0,0,1-1.5.622h0a2.108,2.108,0,0,1-1.5-.622Z" transform="translate(147.983 -374.159)" fill="#6a6a6a"/>
  <path id="Path_282" data-name="Path 282" d="M-113.5,475.7a2.128,2.128,0,0,1,0-3.006h0l20.243-20.245a2.127,2.127,0,0,1,3.009,0h0a2.131,2.131,0,0,1,0,3.009h0L-110.491,475.7a2.127,2.127,0,0,1-1.5.622h0a2.118,2.118,0,0,1-1.5-.622Z" transform="translate(148.104 -367.715)" fill="#6a6a6a"/>
  <path id="Path_283" data-name="Path 283" d="M-109.023,472.274a2.128,2.128,0,0,1-.214-3h0l11.54-13.3a2.13,2.13,0,0,1,3-.212h0a2.125,2.125,0,0,1,.21,3h0l-11.542,13.3a2.117,2.117,0,0,1-1.607.735h0a2.114,2.114,0,0,1-1.388-.519Z" transform="translate(153.463 -363.522)" fill="#6a6a6a"/>
  <path id="Path_284" data-name="Path 284" d="M-79.248,449.517a2.125,2.125,0,0,1,.312-2.991h0l9.351-7.6a2.125,2.125,0,0,1,2.991.31h0a2.123,2.123,0,0,1-.312,2.991h0l-9.351,7.6a2.11,2.11,0,0,1-1.337.477h0a2.131,2.131,0,0,1-1.654-.787Z" transform="translate(190.364 -384.15)" fill="#6a6a6a"/>
  <path id="Path_285" data-name="Path 285" d="M-79.2,459.323a2.123,2.123,0,0,1,.207-3h0l19.438-16.956a2.126,2.126,0,0,1,3,.205h0a2.126,2.126,0,0,1-.205,3h0L-76.2,459.526a2.109,2.109,0,0,1-1.4.524h0a2.114,2.114,0,0,1-1.6-.727Z" transform="translate(190.365 -383.667)" fill="#6a6a6a"/>
  <path id="Path_286" data-name="Path 286" d="M-79.469,464.341a2.118,2.118,0,0,1,.225-3h0l21.774-18.707a2.129,2.129,0,0,1,3,.227h0a2.128,2.128,0,0,1-.23,3h0l-21.774,18.705a2.116,2.116,0,0,1-1.384.513h0a2.119,2.119,0,0,1-1.614-.742Z" transform="translate(190.042 -379.639)" fill="#6a6a6a"/>
  <path id="Path_287" data-name="Path 287" d="M-79.61,469.079a2.135,2.135,0,0,1,.238-3h0l22.066-18.854a2.133,2.133,0,0,1,3,.238h0a2.124,2.124,0,0,1-.238,3h0l-22.066,18.854a2.128,2.128,0,0,1-1.382.51h0a2.14,2.14,0,0,1-1.62-.742Z" transform="translate(189.882 -373.998)" fill="#6a6a6a"/>
  <path id="Path_288" data-name="Path 288" d="M-79.99,471.259a2.119,2.119,0,0,1,.359-2.982h0l21.047-16.519a2.127,2.127,0,0,1,2.984.361h0a2.125,2.125,0,0,1-.359,2.986h0L-77,471.62a2.125,2.125,0,0,1-1.313.455h0a2.119,2.119,0,0,1-1.674-.816Z" transform="translate(189.478 -368.358)" fill="#6a6a6a"/>
  <path id="Path_289" data-name="Path 289" d="M-77.911,471.441a2.136,2.136,0,0,1,.4-2.984h0l16.666-12.712a2.122,2.122,0,0,1,2.98.4h0a2.124,2.124,0,0,1-.4,2.98h0L-74.927,471.84a2.126,2.126,0,0,1-1.293.435h0a2.134,2.134,0,0,1-1.692-.834Z" transform="translate(192.057 -363.443)" fill="#6a6a6a"/>
  <path id="Path_290" data-name="Path 290" d="M-73.1,467.675a2.128,2.128,0,0,1,.359-2.989h0l7.453-5.848a2.13,2.13,0,0,1,2.984.361h0a2.126,2.126,0,0,1-.359,2.989h0l-7.455,5.848a2.1,2.1,0,0,1-1.308.452h0a2.119,2.119,0,0,1-1.674-.814Z" transform="translate(197.938 -359.657)" fill="#6a6a6a"/>
</svg>
