<svg xmlns="http://www.w3.org/2000/svg" width="24.833" height="39.733" viewBox="0 0 24.833 39.733">
  <path id="Icon_awesome-chess-bishop" data-name="Icon awesome-chess-bishop" d="M.621,22.341c0,4.007,1.718,5.729,4.346,6.565v3.377h14.9V28.906c2.628-.836,4.346-2.561,4.346-6.565a20.555,20.555,0,0,0-2.071-7.959l-7.784,7.786a.621.621,0,0,1-.878,0L12.6,21.29a.621.621,0,0,1,0-.878l8.373-8.376a26.205,26.205,0,0,0-5.5-7.185,2.448,2.448,0,0,0,1.909-2.368A2.483,2.483,0,0,0,14.9,0H9.933A2.483,2.483,0,0,0,7.45,2.483,2.451,2.451,0,0,0,9.359,4.851C5.262,8.288.621,16.646.621,22.341ZM23.592,34.767H1.242A1.242,1.242,0,0,0,0,36.008v2.483a1.242,1.242,0,0,0,1.242,1.242h22.35a1.242,1.242,0,0,0,1.242-1.242V36.008A1.242,1.242,0,0,0,23.592,34.767Z" fill="#cb1212"/>
</svg>
