<svg id="Group_128" data-name="Group 128" xmlns="http://www.w3.org/2000/svg" width="91.496" height="131.152" viewBox="0 0 91.496 131.152">
  <g id="Group_127" data-name="Group 127">
    <path id="Path_291" data-name="Path 291" d="M-34.076,649.205V649.2l-.006-.077-.006-.023c-.285-7.3-5.155-12.642-11.744-15.867-.537-.264-1.1-.5-1.661-.743-.091-1.89-.175-3.192-.175-3.2s-.012-.029-.012-.046c0-.058-.019-.109-.021-.163a26.5,26.5,0,0,0,7.648-5.213,18.333,18.333,0,0,0,4.466-7.924c.559-1.686.567-4,.6-6.857,0-5.081-.392-11.053-.392-11.08s-.008-.021-.01-.033c-.291-7.293-5.155-12.625-11.744-15.855-6.661-3.3-15.246-4.8-24.021-4.812-9.839.01-19.9,1.921-27.719,5.714-7.751,3.745-13.575,9.687-13.591,17.7,0,.264.012.514.023.757a1.954,1.954,0,0,0-.454,1.319h0c0,.035.217,5.213,1.071,11.843-7.415,3.764-12.908,9.579-12.923,17.364,0,.266.008.518.023.759a1.951,1.951,0,0,0-.454,1.315h0a154.826,154.826,0,0,0,1.826,16.975c.77,4.468,3.882,7.755,8.085,10.1-3.9,3.438-6.418,7.79-6.43,13.046,0,.26.014.51.025.753a1.935,1.935,0,0,0-.46,1.319,154.167,154.167,0,0,0,1.83,16.978c.974,5.659,5.673,9.451,11.637,11.779,6.024,2.357,13.626,3.428,21.493,3.434a85.416,85.416,0,0,0,18.562-2.028c10.3-2.334,16.018-5.712,19.322-9.092a18.2,18.2,0,0,0,4.468-7.924c.555-1.684.57-4,.6-6.853,0-1.137-.019-2.318-.05-3.467a24.443,24.443,0,0,0,5.52-4.113,18.2,18.2,0,0,0,4.468-7.931c.559-1.68.572-4,.6-6.862C-33.692,655.448-34.029,649.93-34.076,649.205Zm-3.552,10.981a25.976,25.976,0,0,1-.363,5.51,23.222,23.222,0,0,1-1.345,3.471c.07-1.312.134-2.621.2-3.937a1.946,1.946,0,0,0-1.519-1.975,24.363,24.363,0,0,0,3.021-3.364C-37.63,659.99-37.628,660.089-37.628,660.186Zm-79.584,27.046a22.648,22.648,0,0,0,5.116,4.7,2,2,0,0,0-.155.563c-.093,1.166-.124,2.336-.124,3.5,0,.891.056,1.783.1,2.677a9.526,9.526,0,0,1-4.152-6.077C-116.742,690.744-117,688.939-117.212,687.232Zm-3.048-42.189a22.533,22.533,0,0,0,5.12,4.7,1.824,1.824,0,0,0-.157.563c-.091,1.168-.124,2.334-.124,3.492,0,.9.052,1.787.095,2.677a9.524,9.524,0,0,1-4.152-6.073C-119.787,648.553-120.043,646.75-120.26,645.043Zm49.1-63.8c8.312,0,16.406,1.486,22.271,4.4,5.894,2.974,9.365,7.029,9.571,12.559,0,.122,0,.264,0,.407.045,6.022-4.751,11.536-12.466,15.593-1.133.6-2.336,1.145-3.574,1.665-.107.043-.219.085-.326.128-1.393.578-2.842,1.1-4.336,1.577a63.736,63.736,0,0,1-9.357,2.208q-.848.136-1.707.248c-.78.105-1.558.188-2.338.262-.617.058-1.234.122-1.851.161-1.354.091-2.7.146-4.041.144-7.7.008-14.988-1.519-20.257-4.676-.576-.345-1.114-.718-1.634-1.1a19.014,19.014,0,0,1-3.176-2.87c-.074-.083-.159-.155-.229-.237a17.007,17.007,0,0,1-3.906-10.357l-.984.052,0,0,.988-.056c-.01-.227-.021-.433-.021-.629-.017-5.877,4.251-10.661,11.377-14.163C-90.083,583.1-80.477,581.237-71.156,581.241Zm32.232,27.843a25.654,25.654,0,0,1-.365,5.5,22.847,22.847,0,0,1-1.348,3.477c.068-1.315.136-2.623.2-3.942a1.943,1.943,0,0,0-1.519-1.975,24.441,24.441,0,0,0,3.025-3.368C-38.926,608.88-38.924,608.983-38.924,609.084Zm.916,40.639c.037,5.112-3.426,9.856-9.194,13.655-.08.054-.159.109-.241.161q-1.43.929-3.036,1.779a1.007,1.007,0,0,0-.107.05,48.321,48.321,0,0,1-4.907,2.185c-.089.035-.177.072-.268.105q-1.535.588-3.141,1.09c-.095.029-.186.062-.279.093A64.706,64.706,0,0,1-68.1,670.9c-.7.109-1.393.217-2.093.3a62.529,62.529,0,0,1-7.819.51c-.056,0-.107,0-.161,0-1.672,0-3.316-.089-4.93-.235-.557-.052-1.11-.12-1.661-.19-.669-.085-1.335-.173-1.989-.283a33.415,33.415,0,0,1-11.513-3.964c-.462-.283-.891-.588-1.325-.891-.109-.076-.227-.145-.334-.225-.14-.1-.281-.206-.417-.312.479.062.949.138,1.436.19,1.405.159,2.846.262,4.294.339s2.906.13,4.379.13a87.235,87.235,0,0,0,13.22-1.032c.2-.031.411-.052.613-.085,1.6-.26,3.184-.559,4.726-.908a66.525,66.525,0,0,0,6.591-1.837c.2-.066.4-.132.59-.2,1.383-.485,2.627-1,3.785-1.521a1.931,1.931,0,0,0,.258,1.593,1.976,1.976,0,0,0,1.632.865,1.958,1.958,0,0,0,1.106-.345c.027-.018,1.085-.741,2.575-1.9.867-.673,1.87-1.492,2.926-2.421.074-.064.149-.132.227-.2.2-.182.4-.355.609-.543a34.083,34.083,0,0,0,4.761-5.322l2.09-.012a1.967,1.967,0,0,0,1.958-1.979,1.962,1.962,0,0,0-1.977-1.956h-.283a8.209,8.209,0,0,0,.2-1.465,5.9,5.9,0,0,0-2.677-4.87c.008-.566.014-1.145.023-1.76,0-1.139-.019-2.318-.05-3.467,5.731,2.957,9.109,6.967,9.315,12.413C-38.007,649.436-38.007,649.581-38.007,649.723Zm-15.7,46.29a22.8,22.8,0,0,1-2.85,1.913c-.111-1.129-.221-2.567-.351-3.935-.095-.976-.194-1.923-.336-2.743-.083-.382-.136-.71-.221-1.04a38.613,38.613,0,0,0,3.847-2.553q-.192,3.646-.378,7.3A1.932,1.932,0,0,0-53.708,696.013Zm-10.7,5.221c-.1-2.09-.464-4.082-.652-5.879a1.969,1.969,0,0,0-.712-1.308c1.618-.588,3.166-1.259,4.67-1.967.111.706.231,1.676.305,2.633.163,1.793.291,3.7.491,5.039l0,0C-61.527,700.266-62.891,700.761-64.408,701.234ZM-111.157,652c.095.045.2.082.3.128l.173.074q1.3.579,2.658,1.057a1.936,1.936,0,0,0-.59,1.218c-.025.281-.025.526-.025.731,0,.524.035,1.026.078,1.515.01.107.025.206.037.314.109,1.036.266,2,.369,2.883-.555-.177-1.079-.369-1.6-.567-.169-.062-.351-.118-.516-.182-.241-.1-.456-.2-.689-.3l-.305-.136-.157-.068c-.064-.029-.13-.054-.192-.083a1.783,1.783,0,0,0,.13-.229,1.9,1.9,0,0,0,.13-.728c0-.039.016-.074.014-.114l0-.006q-.13-1.851-.132-3.708c0-.231.021-.452.023-.687.006-.411.027-.815.043-1.22C-111.335,651.929-111.244,651.96-111.157,652Zm66.693-29.461a22.936,22.936,0,0,1-2.85,1.911c-.116-1.125-.227-2.563-.353-3.933-.093-.976-.2-1.915-.336-2.74-.083-.38-.138-.71-.223-1.04a38.187,38.187,0,0,0,3.851-2.553q-.2,3.65-.378,7.3A1.905,1.905,0,0,0-44.465,622.539Zm-7.675-3.8c.095-.043.186-.091.279-.132.025.163.05.341.078.528.021.165.043.332.066.508.062.505.12,1.052.161,1.6.165,1.789.291,3.7.5,5.039-.32.132-.658.262-1,.4-.96.371-1.989.735-3.112,1.083-.1-2.091-.466-4.08-.654-5.877a1.956,1.956,0,0,0-.712-1.31c.169-.06.328-.136.5-.2,1.244-.464,2.454-.97,3.63-1.507C-52.317,618.829-52.23,618.783-52.139,618.74Zm-17.582,10.252c0-.095-.014-.186-.023-.279l0-.015-.025-.276c-.111-1.168-.248-2.284-.289-3.219a1.945,1.945,0,0,0-.563-1.259c.479-.064.953-.136,1.43-.211.33-.047.664-.087.995-.14l1.1-.194c-.008.122-.017.24-.019.359,0,.1-.012.2-.012.293l0,.066c.006,1.583.223,3.137.25,4.369,0,.062.008.134.008.2l0,.093v.019c0,.066-.006.118-.006.18a4.731,4.731,0,0,1-.128,1.168c-.014.05,0,.1-.012.151-.871.116-1.74.229-2.621.318C-69.645,630.071-69.678,629.531-69.721,628.992Zm-41.048-.066a6.567,6.567,0,0,1,2.776-2.97,17.448,17.448,0,0,0,3.415,2.935Zm15.077,3.851c.239.07.475.142.718.208.151.039.3.083.452.122,1.412.359,2.881.656,4.387.908a5.974,5.974,0,0,1-2.466,1.828,18.422,18.422,0,0,1-5.153.613,28.987,28.987,0,0,1-3.085-.184c-.155-.017-.307-.039-.462-.06a21.654,21.654,0,0,1-5.805-1.434,8.866,8.866,0,0,1-2.912-1.921Zm36.1-9.276c.025.2.047.4.076.592a41.4,41.4,0,0,1,.435,4.189,1.724,1.724,0,0,0,.08.357c.012.058.021.118.037.171-.376.093-.751.186-1.141.275-.052.012-.1.025-.151.035-.252.058-.518.1-.772.151-.642.138-1.3.26-1.952.38l0-.072c.01-.177.023-.355.025-.528,0-.031,0-.064,0-.095,0-.054,0-.107,0-.159v-.039l0-.093c-.012-1.094-.12-2.169-.192-3.137-.01-.124-.021-.26-.029-.378-.025-.367-.037-.712-.035-1.032a5.008,5.008,0,0,1,.027-.617,1.9,1.9,0,0,0-.138-.908c.553-.132,1.1-.281,1.643-.431.136-.035.274-.068.409-.105.532-.149,1.061-.291,1.583-.452a2.025,2.025,0,0,0-.064.7C-59.692,622.706-59.641,623.1-59.589,623.5Zm-14.782.823c.237-.016.477-.041.716-.062a1.95,1.95,0,0,0-.334,1.125c.05,1.055.171,2.128.272,3.135.008.068.012.134.021.2a.71.71,0,0,0,.006.095l.019.2c.058.619.1,1.209.1,1.723,0,.072-.01.118-.012.19-1.067.056-2.13.072-3.192.087-.118-.642-.219-1.292-.3-1.95l-.006-.029c-.008-.089-.029-.173-.039-.262l0-.031a25.23,25.23,0,0,1-.147-2.631c0-.084.01-.161.01-.244,0-.124.01-.239.014-.359.01-.349.014-.71.041-1.034.617-.021,1.23-.025,1.847-.062C-75.027,624.39-74.7,624.351-74.371,624.324Zm-6.979.159c.074,0,.144,0,.217,0-.037.545-.068,1.089-.068,1.622,0,.887.06,1.773.142,2.654,0,.046,0,.093.008.138s0,.1.008.153c.008.066.014.132.021.2l.006.043c.008.083.029.165.037.248.058.491.14.97.219,1.453-.557-.021-1.1-.06-1.655-.089-1.143-.068-2.272-.153-3.378-.27,0-.019.008-.033.008-.05h0c0-.043-.006-.085-.006-.128,0-.1-.008-.2-.01-.3-.01-.363-.025-.726-.047-1.077,0-.05,0-.105-.008-.155s-.006-.093-.01-.14c-.13-1.643-.386-3.166-.481-4.571,0-.043-.027-.078-.033-.118q2.272.276,4.606.376C-81.637,624.479-81.492,624.479-81.35,624.483Zm-8.473,4.325c.008.1.021.2.029.3.031.334.037.656.047.978q-1.207-.207-2.361-.462a1.959,1.959,0,0,0,.155-.5,2.27,2.27,0,0,0,.029-.3c0-.076.027-.146.021-.225h0c-.19-1.771-.518-3.312-.51-4.66,0-.184,0-.324.008-.4a1.879,1.879,0,0,0-.062-.57c.792.2,1.6.388,2.414.551a1.872,1.872,0,0,0-.223.989C-90.166,626.035-89.949,627.467-89.823,628.808Zm-6.044-.175c-.735-.231-1.445-.481-2.123-.749-.47-.186-.9-.386-1.343-.586a1.929,1.929,0,0,0,.277-1.077c-.056-.761-.064-1.525-.085-2.291,0-.1-.008-.2-.012-.293-.008-.371-.041-.745-.041-1.118,0-.644.041-1.277.066-1.913.85.406,1.725.774,2.625,1.112.095.033.2.062.293.095.157.06.32.107.479.165a1.934,1.934,0,0,0-.594,1.2,7.418,7.418,0,0,0-.029.757A37.579,37.579,0,0,0-95.868,628.633Zm-6.985-10.174a1.863,1.863,0,0,0-.157.57c-.025.349-.021.693-.037,1.04,0,.1-.006.2-.01.3-.029.718-.074,1.438-.074,2.15,0,.413.035.823.045,1.236,0,.1.006.194.008.291.01.384.023.766.043,1.145a14.017,14.017,0,0,1-1.116-.918c-.091-.078-.19-.157-.274-.24a9.671,9.671,0,0,1-2.072-2.817c-.043-.091-.085-.18-.122-.268a7.562,7.562,0,0,1-.572-1.83q-.176-1.071-.334-2.119-.251-1.665-.446-3.244a21.141,21.141,0,0,0,2.3,2.507A23.144,23.144,0,0,0-102.853,618.459Zm-1.211,49.174a23.8,23.8,0,0,0,2.511,1.936,1.9,1.9,0,0,0-.159.572c-.023.314-.017.627-.031.939-.006.1-.006.2-.012.3-.033.751-.074,1.506-.074,2.251,0,.367.033.73.037,1.1,0,.1.01.194.012.293.008.431.025.858.047,1.288a13.983,13.983,0,0,1-1.506-1.279c-.1-.095-.177-.2-.27-.293a8.9,8.9,0,0,1-2.08-3.337c-.033-.095-.05-.2-.076-.293a7.446,7.446,0,0,1-.225-.875c-.07-.419-.136-.834-.2-1.246q-.025-.173-.056-.347c-.2-1.292-.369-2.547-.522-3.758l0-.012.006.008a21.574,21.574,0,0,0,2.359,2.553C-104.23,667.5-104.143,667.561-104.065,667.634Zm53.5,2.082c.109.708.231,1.682.3,2.641.165,1.76.291,3.63.491,4.969,0,.021.006.045.008.066l-.045.023c-1.213.5-2.561.991-4.061,1.461-.07-1.486-.272-2.918-.456-4.268-.014-.1-.025-.2-.039-.305-.06-.444-.116-.883-.159-1.308a1.975,1.975,0,0,0-.714-1.31c.314-.116.611-.248.92-.367l.322-.13C-52.814,670.731-51.675,670.24-50.561,669.716Zm-6.265-21.181c-.006.1-.008.194-.012.293-.06,1.116-.118,2.231-.169,3.351-.006.1-.012.194-.016.293s-.012.2-.017.293a1.908,1.908,0,0,0,.289,1.055c-.417.33-.869.662-1.366.995-.093.064-.184.128-.285.19-.374.246-.778.489-1.2.73-.041-.39-.078-.811-.118-1.259l-.031-.322c-.045-.543-.093-1.1-.142-1.667-.01-.095-.019-.194-.029-.291-.008-.13-.021-.262-.033-.392-.095-.978-.2-1.919-.336-2.743-.014-.076-.029-.14-.043-.215-.019-.1-.039-.2-.056-.3-.039-.179-.078-.359-.124-.536a38.149,38.149,0,0,0,3.847-2.551Q-56.747,647-56.826,648.535Zm-40.934,28.8c-.056-.778-.064-1.556-.085-2.336,0-.1-.008-.2-.01-.293-.008-.357-.039-.716-.039-1.075,0-.646.039-1.273.062-1.911a34.939,34.939,0,0,0,3.4,1.37,1.93,1.93,0,0,0-.59,1.2c-.014.157-.012.268-.014.4,0,.095-.012.206-.012.291l0,.068a25.566,25.566,0,0,0,.343,3.6c.012.095.027.2.041.291.039.279.068.541.1.807-.733-.233-1.442-.483-2.119-.751-.122-.047-.229-.1-.349-.151-.318-.13-.621-.266-.925-.4-.023-.012-.045-.021-.068-.031a1.926,1.926,0,0,0,.277-1.075Zm8.985-2.677a1.749,1.749,0,0,0-.12.293,1.917,1.917,0,0,0-.085.665c.052.712.13,1.393.208,2.062.012.107.025.208.037.316.136,1.127.256,2.2.289,3.2-.807-.138-1.6-.3-2.367-.464a1.9,1.9,0,0,0,.2-1.017c-.039-.38-.091-.741-.138-1.1-.014-.1-.025-.194-.039-.291a23.31,23.31,0,0,1-.334-3.273l0-.091c0-.118,0-.227.01-.293v-.023a1.989,1.989,0,0,0-.064-.568c.794.2,1.6.384,2.412.547Zm-9.309-12.739c0-.017.01-.029.01-.043v0a41.194,41.194,0,0,0-.407-4.761c-.045-.357-.072-.7-.107-1.044-.014-.151-.033-.31-.045-.458,0-.033-.006-.072-.008-.107s-.029-.076-.035-.118q2.588.316,5.256.392c0,.056,0,.105-.008.161-.029.487-.062.98-.062,1.459,0,.365.043.733.058,1.1,0,.105.012.206.019.312a30.363,30.363,0,0,0,.367,3.471C-94.76,662.217-96.441,662.093-98.084,661.917Zm9.018.378c-.153-.823-.274-1.657-.355-2.5-.008-.1-.008-.2-.014-.293-.064-.708-.118-1.414-.118-2.109,0-.46.027-.891.054-1.317.008-.1,0-.2.012-.3l0-.019c1.18-.041,2.357-.109,3.537-.21a1.907,1.907,0,0,0-.258.658,1.9,1.9,0,0,0-.043.291c0,.056-.029.109-.027.167.05,1.077.175,2.173.279,3.2.008.1.016.194.025.289.062.669.113,1.31.111,1.868,0,.072-.01.122-.012.192C-86.938,662.264-88,662.278-89.066,662.3Zm7.134-.4c0-.586-.041-1.17-.089-1.752-.006-.1-.017-.192-.025-.289-.109-1.209-.256-2.367-.3-3.337l0-.031a2.134,2.134,0,0,0-.062-.258,1.952,1.952,0,0,0-.5-1c1.094-.142,2.181-.3,3.267-.493.087-.016.169-.035.254-.054l0,.06c-.014.221-.037.45-.037.658,0,.126.01.252.014.378l.012.3c.05,1.228.177,2.4.221,3.4,0,.1.006.2.008.3s.012.211.012.3a5.2,5.2,0,0,1-.138,1.343,1.306,1.306,0,0,0-.01.155C-80.182,661.69-81.049,661.806-81.932,661.895Zm9.98-7.73c.017.134.033.266.052.4.029.235.054.473.089.706a42.04,42.04,0,0,1,.446,4.3,1.966,1.966,0,0,0,.118.528c-.423.1-.846.21-1.29.31-.887.2-1.812.359-2.724.53.019-.287.037-.576.037-.856,0-.691-.05-1.379-.1-2.045-.008-.111-.016-.231-.027-.345-.066-.836-.136-1.62-.132-2.289a4.727,4.727,0,0,1,.023-.489c0-.039,0-.093.006-.126a1.959,1.959,0,0,0-.138-.906q1.842-.446,3.636-.988a1.86,1.86,0,0,0-.064.7C-72,653.782-71.975,653.97-71.952,654.164Zm4.495,4.88c-.047-1.061-.163-2.1-.3-3.1-.128-.964-.264-1.9-.357-2.784a1.96,1.96,0,0,0-.2-.634,1.757,1.757,0,0,0-.184-.289c-.043-.06-.093-.114-.138-.167a1.966,1.966,0,0,0-.188-.221l.192-.076c1.55-.568,3.034-1.209,4.478-1.89.1.632.2,1.473.281,2.33.006.1.016.194.025.289l0,.017c.01.107.021.214.029.322s.017.206.027.312c.122,1.387.231,2.771.374,3.9.021.169.043.355.064.512C-64.573,658.075-65.937,658.57-67.458,659.045Zm-36.023-4.47c.186.043.38.072.568.111s.378.07.567.109a1.925,1.925,0,0,0-.223.986c.07.885.169,1.729.266,2.553.128,1.059.235,2.072.268,3.029q-1.21-.207-2.367-.462a1.891,1.891,0,0,0,.2-1.022c-.027-.268-.062-.52-.095-.776a34.146,34.146,0,0,1-.411-3.774c0-.041,0-.083,0-.124,0-.083,0-.124,0-.19s0-.171,0-.217a1.858,1.858,0,0,0-.062-.557C-104.335,654.354-103.916,654.48-103.481,654.575Zm18.855,24.76c-.014-.122-.027-.245-.039-.365-.136-1.288-.314-2.505-.39-3.638,0-.041-.027-.078-.033-.122,1.118.138,2.247.248,3.393.316l.343.027c.5.027,1.013.035,1.521.052-.039.547-.072,1.094-.072,1.63a30.069,30.069,0,0,0,.446,4.876c-1.713-.062-3.4-.186-5.037-.361,0-.014.008-.031.008-.049C-84.491,680.88-84.551,680.1-84.625,679.334Zm18.825-4.8c-.006.1-.01.194-.014.291,0,.132-.019.274-.019.4,0,1.021.095,2.022.171,2.943.008.124.019.243.027.363.039.491.066.964.064,1.379a5.211,5.211,0,0,1-.136,1.343,1.376,1.376,0,0,0-.012.155c-.873.12-1.742.235-2.623.322,0-.328-.021-.656-.037-.982-.008-.12-.008-.239-.017-.361-.105-1.474-.314-2.908-.361-4.067a1.925,1.925,0,0,0-.563-1.261c.518-.066,1.032-.142,1.546-.225.627-.093,1.248-.186,1.872-.3.035-.006.07-.013.105-.021Zm-9.681,7.6a27.226,27.226,0,0,1-.481-4.893c0-.578.021-1.127.066-1.649,1.18-.037,2.359-.109,3.539-.208a1.92,1.92,0,0,0-.332,1.12c.091,1.89.419,3.882.415,5.349,0,.074-.008.124-.01.194C-73.351,682.1-74.416,682.11-75.481,682.127Zm13.843-2.3c0-.132-.01-.262-.012-.394-.047-1.546-.256-3.05-.248-4.214,0-.136.008-.227.012-.34l0-.083c0-.054,0-.134.008-.179s-.012-.072-.01-.109c0-.019-.006-.037-.006-.058a1.873,1.873,0,0,0-.122-.745c.312-.076.617-.165.925-.244.912-.233,1.822-.477,2.712-.747a1.923,1.923,0,0,0-.062.7c.052.46.109.914.167,1.364.039.291.074.574.113.858.021.144.037.285.058.427a31.874,31.874,0,0,1,.322,3.329,1.993,1.993,0,0,0,.118.532c-.425.1-.846.206-1.292.308-.889.2-1.812.363-2.726.532.021-.287.039-.578.041-.859Zm10.423-39.775c0,.105,0,.211,0,.316v.033c0,.1,0,.2,0,.3,0,1.281-.047,2.52-.124,3.469-.008.105-.014.2-.025.3a6.081,6.081,0,0,1-.217,1.389c-.277.772-.518,1.653-.945,2.641-.041.1-.083.2-.128.3-.08.177-.177.357-.274.539.01-.177.021-.359.027-.537.006-.1.01-.2.017-.3.054-1.038.105-2.07.157-3.11a1.966,1.966,0,0,0-.549-1.455,2.02,2.02,0,0,0-.543-.4,1.862,1.862,0,0,0-.425-.118,24.945,24.945,0,0,0,2.611-2.823c.068-.085.128-.169.2-.254S-51.287,640.154-51.215,640.055Zm-59.858-20.288a11.871,11.871,0,0,0,.916,2.866,10.233,10.233,0,0,0-4.571,5.747c-.047.188-.07.378-.1.565l-2.827.016a1.96,1.96,0,0,0-1.956,1.977,1.967,1.967,0,0,0,1.963,1.961h.017l3.118-.019a10.079,10.079,0,0,0,5.85,5.51,21.862,21.862,0,0,0,3.209,1.05c.116.029.229.05.343.078a30.69,30.69,0,0,0,4.847.77c.85.064,1.7.1,2.514.1a22,22,0,0,0,6.344-.794c2.454-.894,4.255-2.8,6.007-4.974,2.435.231,4.93.355,7.462.357a87.611,87.611,0,0,0,11.15-.749c-.27.26-.545.524-.83.772a59.033,59.033,0,0,1-5.883,4.7,1.969,1.969,0,0,0-.526,2.736,1.971,1.971,0,0,0,1.634.865,1.971,1.971,0,0,0,1.1-.339l0,0a61.52,61.52,0,0,0,6.342-5.06,38.186,38.186,0,0,0,4.338-4.707c.19-.037.39-.07.58-.111.215-.047.444-.081.656-.128a66.2,66.2,0,0,0,6.915-1.938c.161-.054.3-.115.458-.173.132-.043.246-.095.376-.14-.006.083,0,.165-.01.246-.008.1-.027.2-.035.295a12.136,12.136,0,0,1-.97,3.51,17,17,0,0,1-3.325,4.843c-.089.093-.182.184-.274.276a30.207,30.207,0,0,1-6.321,4.781c-.144.083-.293.165-.442.248-.349.2-.7.39-1.059.582a50.46,50.46,0,0,1-7.491,3.126c-.1.031-.2.064-.3.1-.173.054-.345.111-.516.169-.035.008-.07.021-.105.031A63.693,63.693,0,0,1-80,650.788c-.646.117-1.3.221-1.948.32a63.873,63.873,0,0,1-9.429.77c-.072,0-.144.006-.217.006-.452,0-.9-.025-1.346-.033-1.422-.033-2.831-.105-4.21-.245-1.422-.142-2.8-.361-4.158-.621a39.688,39.688,0,0,1-4.189-1.026c-.1-.031-.188-.066-.285-.1-.4-.126-.8-.262-1.191-.4a28.487,28.487,0,0,1-3.4-1.465c-.091-.045-.18-.1-.268-.142-.407-.215-.823-.419-1.211-.65-5.264-3.19-8.566-7.747-8.942-14.559l-.984.047,0,0,.988-.056c-.01-.229-.021-.442-.021-.631-.012-5.357,3.56-9.794,9.588-13.193C-111.176,619.132-111.126,619.448-111.073,619.767Zm-.217,43.221c.147.052.3.1.448.157.161,1.443.355,2.992.584,4.6a8.874,8.874,0,0,0-1.426,2.821c-.045.19-.07.378-.1.567l-2.823.015a1.969,1.969,0,0,0-1.958,1.981,1.963,1.963,0,0,0,1.963,1.956h.017l3.122-.016a10.082,10.082,0,0,0,5.844,5.508,25.111,25.111,0,0,0,6.585,1.69c.305.13.594.27.9.392,6.026,2.359,13.626,3.428,21.491,3.436a85.673,85.673,0,0,0,18.562-2.026c1.341-.305,2.6-.627,3.791-.966a33.541,33.541,0,0,1-6.732,4.569c-7.654,4.03-17.9,6.4-27.531,6.4-7.7,0-14.98-1.521-20.251-4.68-5.266-3.188-8.572-7.745-8.946-14.565l-.988.05v0l.988-.052c-.012-.229-.021-.44-.021-.629C-117.782,669.827-115.419,666.067-111.289,662.988Zm35.179,39.279a5.2,5.2,0,0,1-.138,1.343,1.259,1.259,0,0,0-.01.151c-.871.115-1.742.233-2.623.32-.023-1.921-.355-3.892-.419-5.4a1.932,1.932,0,0,0-.559-1.259c1.182-.155,2.355-.33,3.521-.543-.014.241-.033.487-.033.718C-76.368,699.3-76.1,701-76.111,702.268Zm-9.91,2.216a27.3,27.3,0,0,1-.485-4.891c0-.578.019-1.125.066-1.645q1.768-.059,3.537-.211a1.917,1.917,0,0,0-.328,1.114c.089,1.9.421,3.888.417,5.363,0,.07-.008.114-.008.182C-83.892,704.453-84.955,704.468-86.02,704.484Zm-15.129-2.417c-.194-1.769-.518-3.318-.514-4.67a3.5,3.5,0,0,1,.014-.39,2.017,2.017,0,0,0-.064-.572c.79.2,1.6.388,2.41.549a1.894,1.894,0,0,0-.221.993c.149,2.031.479,3.88.539,5.578-.809-.142-1.6-.295-2.369-.464a1.862,1.862,0,0,0,.206-1.02Zm6.119,1.991c-.008-2.35-.435-4.462-.565-6.37,0-.041-.027-.074-.031-.116,1.721.21,3.475.341,5.25.394-.037.545-.068,1.092-.068,1.626A30.272,30.272,0,0,0-90,704.465c-1.711-.06-3.393-.184-5.033-.357,0-.016.01-.031.01-.05Zm-13.412-8.069c0-.65.039-1.277.066-1.913a34.094,34.094,0,0,0,3.4,1.372,1.946,1.946,0,0,0-.594,1.2c-.027.293-.027.547-.027.749a38.692,38.692,0,0,0,.485,4.709c-.733-.235-1.442-.485-2.121-.751-.473-.184-.9-.386-1.339-.584a1.906,1.906,0,0,0,.272-1.081C-108.392,698.458-108.442,697.22-108.442,695.99Zm36.225,7.13c.021-.287.039-.572.041-.852-.008-1.7-.268-3.4-.262-4.674a4.984,4.984,0,0,1,.031-.627,1.986,1.986,0,0,0-.138-.9q1.842-.449,3.632-.989a1.907,1.907,0,0,0-.062.7c.227,2.132.613,4.175.652,5.978a1.918,1.918,0,0,0,.12.526c-.423.1-.846.208-1.288.31C-70.38,702.79-71.3,702.951-72.216,703.12Zm21.024-17.5a24.315,24.315,0,0,0,3.025-3.37c0,.1,0,.208,0,.312a25.578,25.578,0,0,1-.365,5.493,22.929,22.929,0,0,1-1.348,3.481q.1-1.966.2-3.942A1.943,1.943,0,0,0-51.192,685.616Zm6.459-10.834-.144.091c-.357.233-.739.462-1.141.691-.111-1.125-.223-2.567-.351-3.933-.064-.691-.142-1.345-.227-1.973-.035-.26-.068-.528-.107-.772-.083-.38-.138-.712-.223-1.044q.61-.35,1.2-.72c.085-.056.167-.109.252-.163q1.247-.8,2.394-1.663c-.12,2.431-.254,4.854-.374,7.3a1.906,1.906,0,0,0,.287,1.057c-.392.31-.819.623-1.286.937C-44.545,674.656-44.634,674.718-44.733,674.782Z" transform="translate(125.188 -577.304)" fill="#6a6a6a"/>
    <path id="Path_292" data-name="Path 292" d="M-116.532,593.931a1.962,1.962,0,0,0,1.963,1.956h.017l3.12-.016a10.069,10.069,0,0,0,5.848,5.51,25.356,25.356,0,0,0,6.963,1.736c.557.066,1.108.134,1.659.169.772.056,1.546.095,2.293.1a28.561,28.561,0,0,0,3.459-.2c.543-.07,1.061-.155,1.554-.258a12.887,12.887,0,0,0,1.331-.338c3.157-1.151,5.238-3.977,7.516-6.884l18.659-.1a27.238,27.238,0,0,1-2.388,2.394,58.649,58.649,0,0,1-5.888,4.7,1.973,1.973,0,0,0-.522,2.739,1.957,1.957,0,0,0,1.63.863,1.943,1.943,0,0,0,1.106-.341,62.193,62.193,0,0,0,6.337-5.062,34.063,34.063,0,0,0,4.761-5.318l2.09-.012a1.968,1.968,0,0,0,1.958-1.979,1.965,1.965,0,0,0-1.977-1.956l-.283,0a8.523,8.523,0,0,0,.2-1.471,5.932,5.932,0,0,0-2.837-5c-1.818-1.209-4.3-1.94-7.755-2.353a15.019,15.019,0,0,0-1.861-.111c-6.538.008-10.95,4.154-14.235,8.03-.291.355-.57.706-.852,1.054l-25.02.138c.706-2.163,5.176-5.215,10.2-5.11a12.762,12.762,0,0,1,2.115.167,1.971,1.971,0,0,0,2.262-1.62,1.97,1.97,0,0,0-1.622-2.266,17.1,17.1,0,0,0-2.755-.219c-6.676.111-12.766,3.428-14.161,8.5-.045.19-.072.376-.1.566l-2.823.017A1.964,1.964,0,0,0-116.532,593.931Zm30.626,1.8c-1.453,1.69-2.7,2.91-3.611,3.1a18.477,18.477,0,0,1-5.153.613,25.015,25.015,0,0,1-9.354-1.682,8.816,8.816,0,0,1-2.91-1.919Zm18.325-9.1a12.21,12.21,0,0,1,1.4.087c3.112.353,5.058,1.044,6.022,1.711.958.7,1.055,1.071,1.1,1.731a3.187,3.187,0,0,1-.351,1.494l-18.03.1C-74.667,588.8-71.6,586.617-67.58,586.627Z" transform="translate(134.395 -571.573)" fill="#6a6a6a"/>
  </g>
</svg>
