<svg id="Group_125" data-name="Group 125" xmlns="http://www.w3.org/2000/svg" width="130.114" height="140.596" viewBox="0 0 130.114 140.596">
  <path id="Path_246" data-name="Path 246" d="M-97.125,505.033l-.792-17.723a1.965,1.965,0,0,1,1.876-2.055h0a1.972,1.972,0,0,1,2.055,1.878h0l.8,17.718a1.967,1.967,0,0,1-1.878,2.057h0l-.089,0h0a1.974,1.974,0,0,1-1.969-1.878Z" transform="translate(160.145 -485.253)" fill="#6a6a6a"/>
  <path id="Path_247" data-name="Path 247" d="M-105.389,502.213l-2.128-5.062a1.966,1.966,0,0,1,1.052-2.575h0a1.968,1.968,0,0,1,2.577,1.05h0l2.128,5.066a1.958,1.958,0,0,1-1.052,2.571h0a1.941,1.941,0,0,1-.766.157h0a1.965,1.965,0,0,1-1.812-1.207Z" transform="translate(149.774 -475.501)" fill="#6a6a6a"/>
  <path id="Path_248" data-name="Path 248" d="M-87.408,503.231a1.975,1.975,0,0,1-.879-2.646h0l2.8-5.592a1.967,1.967,0,0,1,2.644-.879h0a1.967,1.967,0,0,1,.877,2.641h0l-2.8,5.592a1.964,1.964,0,0,1-1.762,1.088h0a1.972,1.972,0,0,1-.879-.2Z" transform="translate(170.169 -476.051)" fill="#6a6a6a"/>
  <path id="Path_249" data-name="Path 249" d="M-106.6,510.01l-10.991-14.194a1.966,1.966,0,0,1,.349-2.757h0a1.969,1.969,0,0,1,2.765.349h0l10.991,14.19a1.972,1.972,0,0,1-.351,2.761h0a1.985,1.985,0,0,1-1.207.415h0a1.96,1.96,0,0,1-1.556-.763Z" transform="translate(138.785 -477.39)" fill="#6a6a6a"/>
  <path id="Path_250" data-name="Path 250" d="M-83.281,510.513a1.968,1.968,0,0,1-.287-2.767h0l11.193-13.791a1.971,1.971,0,0,1,2.769-.289h0a1.972,1.972,0,0,1,.287,2.771h0l-11.193,13.791a1.961,1.961,0,0,1-1.529.726h0a1.955,1.955,0,0,1-1.24-.442Z" transform="translate(174.942 -476.772)" fill="#6a6a6a"/>
  <g id="Group_124" data-name="Group 124" transform="translate(0 26.454)">
    <path id="Path_251" data-name="Path 251" d="M-90.5,583.147a1.966,1.966,0,0,1-1.1-1.948h0c-.01,0,.008-.083.008-.343h0c-.06-1.391-.305-6-6.216-8.839h0c-12.745-6.067-18.695-18.946-18.67-32.02h0a44.609,44.609,0,0,1,10.234-28.524h0a37.675,37.675,0,0,1,29.506-13.4h0c.776,0,1.558.023,2.346.064h0c23.589,1.205,36.7,21.489,36.638,40.957h0c.029,13.963-6.713,27.942-21.148,34.353h0c-5.124,2.336-5.409,5.832-5.487,7.466h0a3.511,3.511,0,0,0,.037.644h0l-1.938.357,1.938-.357a1.97,1.97,0,0,1-1.577,2.293h0a68.615,68.615,0,0,1-12.442,1.242h0c-8,0-11.889-1.822-12.134-1.944Zm4.059-2.815a35.713,35.713,0,0,0,8.075.817h0a62,62,0,0,0,10.052-.883h0c.13-2.668,1.577-7.7,7.817-10.417h0c12.807-5.708,18.785-17.97,18.808-30.756h0c-.054-17.892-11.765-35.969-32.9-37.024h0q-1.087-.062-2.14-.06h0c-23.041.039-35.74,19.415-35.8,37.99h0c.027,11.975,5.306,23.164,16.429,28.464h0c6.818,3.219,8.24,8.869,8.432,11.54h0c.334.1.745.217,1.236.33Z" transform="translate(140.408 -498.072)" fill="#6a6a6a"/>
    <path id="Path_252" data-name="Path 252" d="M-95.032,557.77a6.824,6.824,0,0,1-4.521-1.62h0a6.417,6.417,0,0,1-2.1-4.926h.006a1.967,1.967,0,0,1,1.969-1.967h0a1.965,1.965,0,0,1,1.967,1.967h0c.083,1.965,1.052,2.47,2.679,2.608h0a3.473,3.473,0,0,0,3.5-2.656h0a1.963,1.963,0,0,1,2.348-1.484h0a1.965,1.965,0,0,1,1.486,2.35h0a7.4,7.4,0,0,1-7.264,5.727h-.066Z" transform="translate(156.175 -443.628)" fill="#6a6a6a"/>
    <path id="Path_253" data-name="Path 253" d="M-102.551,562.623a1.966,1.966,0,0,1-1.366-2.429h0c0-.016,1.634-5.875,3.273-13.414h0c1.531-7.012,3.042-15.488,3.24-21.767h0a8.341,8.341,0,0,1-1.793-1.139h0a6.687,6.687,0,0,1-2.423-5.149h0a6.112,6.112,0,0,1,.83-3.149h0a3.515,3.515,0,0,1,2.945-1.841h0a3.4,3.4,0,0,1,2.8,1.661h0a9.13,9.13,0,0,1,1.228,3.4h0a23.938,23.938,0,0,1,.34,3.259h0a18.459,18.459,0,0,0,2,.167h0a30.175,30.175,0,0,0,6.985-.984h0c1.244-.3,2.363-.607,3.36-.908h0c2.1-3.595,5.184-5.192,7.5-5.235h0a3.409,3.409,0,0,1,1.8.46h0A2.555,2.555,0,0,1-70.6,517.72h0c-.264,2.206-1.6,2.873-3.514,4.051h0a28.857,28.857,0,0,1-4.261,1.791h0a15.877,15.877,0,0,0-1.158,5.78h0q-.105,2.929-.1,5.613h0a137.659,137.659,0,0,0,1.1,17.805h0c.551,4.2,1.079,6.437,1.083,6.445h0a1.971,1.971,0,0,1-1.465,2.367h0a1.97,1.97,0,0,1-2.369-1.463h0c-.025-.115-2.287-9.73-2.287-25.154h0q0-2.755.1-5.751h0a22.928,22.928,0,0,1,.559-4.309h0c-.215.056-.433.109-.654.165h0a33.717,33.717,0,0,1-7.918,1.094h0a19,19,0,0,1-2.024-.105h0c-.681,14.029-6.608,35.115-6.616,35.2h0a1.969,1.969,0,0,1-1.9,1.44h0a2.039,2.039,0,0,1-.526-.07Z" transform="translate(153.688 -481.412)" fill="#6a6a6a"/>
    <path id="Path_254" data-name="Path 254" d="M-96.855,565.262c-2.842-.421-5.062-.879-6.7-1.876h0l-.334-.266a6.7,6.7,0,0,1-2.152-4.753h0a7.247,7.247,0,0,1,1.319-3.946h0a6.862,6.862,0,0,1-1.4-3.762h0a4.73,4.73,0,0,1,1.8-3.655h0a8.107,8.107,0,0,1-.836-3.595h0c.023-2.412,1.038-5.124,3.923-5.789h0a1.974,1.974,0,0,1,2.289,1.587h0a1.966,1.966,0,0,1-1.587,2.284h0s-.118.008-.328.355h0a3.2,3.2,0,0,0-.361,1.562h0a3.964,3.964,0,0,0,1.114,2.8h0a1.975,1.975,0,0,1,.539,1.766h0a1.967,1.967,0,0,1-1.16,1.434h0c-1.608.78-1.4,1.055-1.459,1.246h0c-.091.38.7,1.624,1.185,2.053h0a2.721,2.721,0,0,0,.2.2h0a1.974,1.974,0,0,1,.671,1.492h0a1.952,1.952,0,0,1-.689,1.484h0s-.033.031-.165.165h0a5.161,5.161,0,0,0-.487.6h0a3.144,3.144,0,0,0-.636,1.717h0a2.564,2.564,0,0,0,.861,1.814h0a19.018,19.018,0,0,0,4.926,1.18h0a66.651,66.651,0,0,0,8.806.565h0a42.874,42.874,0,0,0,9.152-.819h0a1.357,1.357,0,0,0,.549-1.232h0a5.874,5.874,0,0,0-.619-2.276h0a8.369,8.369,0,0,0-.634-1.145h0a1.968,1.968,0,0,1-.289-1.622h0a1.975,1.975,0,0,1,1.052-1.275h0a2.253,2.253,0,0,0,1.127-2.185h0a2.724,2.724,0,0,0-.964-2.286h0a1.977,1.977,0,0,1-1.195-1.591h0a1.969,1.969,0,0,1,.807-1.816h0c.925-.718.929-1.051.968-1.474h0a3.952,3.952,0,0,0-.993-2.156h0c-.116-.138-.151-.173-.151-.173h0a1.961,1.961,0,0,1,0-2.782h0a1.964,1.964,0,0,1,2.782,0h0a7.888,7.888,0,0,1,2.295,5.116h0a5.173,5.173,0,0,1-.906,2.947h0a7.358,7.358,0,0,1,1.292,4.22h0a6.521,6.521,0,0,1-1.655,4.484h0a9.858,9.858,0,0,1,1.015,4.02h0a5.4,5.4,0,0,1-2.592,4.718h0l-.547.239a44.562,44.562,0,0,1-10.5,1.032h0a70.509,70.509,0,0,1-9.348-.6Z" transform="translate(151.426 -456.038)" fill="#6a6a6a"/>
    <path id="Path_255" data-name="Path 255" d="M-103.155,545.407a1.973,1.973,0,0,1-1.655-2.241h0a1.971,1.971,0,0,1,2.241-1.655h0s1.682.246,4.043.5h0a81.877,81.877,0,0,0,8.184.5h0a30.2,30.2,0,0,0,3.748-.2h0A1.967,1.967,0,0,1-84.386,544h0a1.976,1.976,0,0,1-1.7,2.208h0a33.377,33.377,0,0,1-4.257.237h0a101.709,101.709,0,0,1-12.813-1.04Z" transform="translate(152.794 -451.891)" fill="#6a6a6a"/>
    <path id="Path_256" data-name="Path 256" d="M-99.781,550.174v0a1.968,1.968,0,0,1-1.781-2.14h0a1.964,1.964,0,0,1,2.136-1.781h0s.623.052,1.672.109h0c1.046.054,2.518.109,4.218.109h0A48.069,48.069,0,0,0-82.6,545.406h0a1.969,1.969,0,0,1,2.386,1.434h0a1.968,1.968,0,0,1-1.434,2.383h0a51.476,51.476,0,0,1-11.885,1.193h0c-3.578,0-6.205-.237-6.245-.241Z" transform="translate(156.263 -447.789)" fill="#6a6a6a"/>
    <path id="Path_257" data-name="Path 257" d="M-126.1,519.987a1.967,1.967,0,0,1-1.969-1.967h0a1.967,1.967,0,0,1,1.969-1.969h17.052a1.97,1.97,0,0,1,1.971,1.969h0a1.97,1.97,0,0,1-1.971,1.967H-126.1Z" transform="translate(128.073 -478.948)" fill="#6a6a6a"/>
    <path id="Path_258" data-name="Path 258" d="M-76.74,518.751a1.965,1.965,0,0,1,1.847-2.078h0l20.253-1.2a1.964,1.964,0,0,1,2.082,1.847h0a1.971,1.971,0,0,1-1.851,2.082h0l-20.251,1.2c-.035,0-.074,0-.111,0h0a1.97,1.97,0,0,1-1.969-1.855Z" transform="translate(182.669 -479.567)" fill="#6a6a6a"/>
    <path id="Path_259" data-name="Path 259" d="M-112.6,511.516l-6.4-3.6a1.968,1.968,0,0,1-.751-2.679h0a1.968,1.968,0,0,1,2.681-.753h0l6.393,3.595a1.965,1.965,0,0,1,.751,2.681h0a1.961,1.961,0,0,1-1.717,1.007h0a1.961,1.961,0,0,1-.962-.254Z" transform="translate(136.657 -491.517)" fill="#6a6a6a"/>
    <path id="Path_260" data-name="Path 260" d="M-77.907,511.583a1.973,1.973,0,0,1,.551-2.73h0l4.8-3.2a1.972,1.972,0,0,1,2.73.549h0a1.968,1.968,0,0,1-.547,2.73h0l-4.8,3.194a1.96,1.96,0,0,1-1.09.33h0a1.967,1.967,0,0,1-1.643-.877Z" transform="translate(181.083 -490.354)" fill="#6a6a6a"/>
    <path id="Path_261" data-name="Path 261" d="M-70.763,531.426l-6.527-2.532a1.965,1.965,0,0,1-1.125-2.544h0a1.968,1.968,0,0,1,2.549-1.127h0l6.529,2.532a1.967,1.967,0,0,1,1.125,2.547h0a1.977,1.977,0,0,1-1.839,1.259h0a1.96,1.96,0,0,1-.712-.134Z" transform="translate(180.749 -469.336)" fill="#6a6a6a"/>
    <path id="Path_262" data-name="Path 262" d="M-85.062,543.358l-2.266-5.2a1.969,1.969,0,0,1,1.019-2.592h0a1.966,1.966,0,0,1,2.59,1.015h0l2.264,5.2a1.967,1.967,0,0,1-1.015,2.592h0a1.935,1.935,0,0,1-.786.165h0a1.969,1.969,0,0,1-1.806-1.18Z" transform="translate(171.237 -458.365)" fill="#6a6a6a"/>
    <path id="Path_263" data-name="Path 263" d="M-122.391,529.547a1.977,1.977,0,0,1,1.193-2.52h0l7.462-2.662a1.969,1.969,0,0,1,2.516,1.191h0a1.963,1.963,0,0,1-1.193,2.516h0l-7.458,2.664a1.919,1.919,0,0,1-.665.115h0a1.973,1.973,0,0,1-1.855-1.3Z" transform="translate(133.995 -470.228)" fill="#6a6a6a"/>
    <path id="Path_264" data-name="Path 264" d="M-111.534,543.84a1.972,1.972,0,0,1-.559-2.728h0l4.131-6.263a1.966,1.966,0,0,1,2.724-.557h0a1.965,1.965,0,0,1,.563,2.728h0l-4.129,6.259a1.972,1.972,0,0,1-1.647.885h0a1.988,1.988,0,0,1-1.083-.324Z" transform="translate(144.725 -459.893)" fill="#6a6a6a"/>
    <path id="Path_265" data-name="Path 265" d="M-121.475,544.048a1.968,1.968,0,0,1,.277-2.769h0l13-10.591a1.965,1.965,0,0,1,2.771.279h0a1.963,1.963,0,0,1-.283,2.769h0L-118.7,544.331a1.957,1.957,0,0,1-1.244.444h0a1.957,1.957,0,0,1-1.527-.726Z" transform="translate(134.618 -463.855)" fill="#6a6a6a"/>
    <path id="Path_266" data-name="Path 266" d="M-65.142,544.526l-15.989-9.79a1.967,1.967,0,0,1-.65-2.705h0a1.969,1.969,0,0,1,2.7-.654h0l15.993,9.794a1.964,1.964,0,0,1,.65,2.708h0a1.961,1.961,0,0,1-1.68.939h0a1.958,1.958,0,0,1-1.028-.291Z" transform="translate(177.002 -462.954)" fill="#6a6a6a"/>
    <path id="Path_267" data-name="Path 267" d="M-110.744,529.049a1.968,1.968,0,0,1-1.535-2.328h0c2.594-12.588,12.246-19.873,19.875-24.229h0a1.967,1.967,0,0,1,2.683.739h0a1.964,1.964,0,0,1-.731,2.681h0c-7.3,4.167-15.768,10.745-17.968,21.6h0a1.973,1.973,0,0,1-1.932,1.577h0a1.942,1.942,0,0,1-.392-.039Z" transform="translate(144.827 -493.645)" fill="#6a6a6a"/>
    <path id="Path_268" data-name="Path 268" d="M-112.708,525.7v-6.129a1.967,1.967,0,0,1,1.969-1.969h0a1.969,1.969,0,0,1,1.971,1.969h0V525.7a1.968,1.968,0,0,1-1.971,1.967h0a1.967,1.967,0,0,1-1.969-1.967Z" transform="translate(144.416 -477.301)" fill="#6a6a6a"/>
  </g>
</svg>
