<svg xmlns="http://www.w3.org/2000/svg" width="21.64" height="38.479" viewBox="0 0 21.64 38.479">
  <path id="Icon_awesome-dollar-sign" data-name="Icon awesome-dollar-sign" d="M15.723,17.541,7.606,15.167a2.217,2.217,0,0,1,.624-4.344h4.983a4.588,4.588,0,0,1,2.57.789,1.172,1.172,0,0,0,1.466-.15l2.615-2.555a1.218,1.218,0,0,0-.135-1.841,10.627,10.627,0,0,0-6.5-2.255V1.2a1.206,1.206,0,0,0-1.2-1.2H9.62a1.206,1.206,0,0,0-1.2,1.2V4.81H8.229A8.235,8.235,0,0,0,.037,13.8a8.6,8.6,0,0,0,6.3,7.26l7.7,2.255a2.217,2.217,0,0,1-.624,4.344H8.432a4.588,4.588,0,0,1-2.57-.789,1.172,1.172,0,0,0-1.466.15L1.781,29.574a1.218,1.218,0,0,0,.135,1.841,10.627,10.627,0,0,0,6.5,2.255v3.607a1.206,1.206,0,0,0,1.2,1.2h2.4a1.206,1.206,0,0,0,1.2-1.2V33.655a8.49,8.49,0,0,0,7.944-5.464,8.253,8.253,0,0,0-5.449-10.65Z" transform="translate(-0.003)" fill="#d11413"/>
</svg>
