<svg xmlns="http://www.w3.org/2000/svg" width="60.858" height="25.099" viewBox="0 0 60.858 25.099">
  <path id="Icon_awesome-stripe" data-name="Icon awesome-stripe" d="M15.69,10.687l-4.118.875-.019,13.543a4.074,4.074,0,0,0,4.384,4.118,6.568,6.568,0,0,0,2.967-.561V25.448c-.542.219-3.205,1-3.205-1.493V17.944H18.9V14.349H15.7Zm8.474,4.907-.257-1.246H20.255v14.57h4.213V19.114a3.007,3.007,0,0,1,3.224-.884v-3.88A2.886,2.886,0,0,0,24.164,15.595Zm8.778-6.876-4.242.9v3.443l4.242-.9ZM4.268,18.638c0-.656.552-.913,1.436-.923a9.463,9.463,0,0,1,4.2,1.084V14.825a11.271,11.271,0,0,0-4.194-.77c-3.424,0-5.706,1.788-5.706,4.774,0,4.679,6.42,3.918,6.42,5.935,0,.78-.675,1.037-1.617,1.037A10.653,10.653,0,0,1,.188,24.449v3.8a11.7,11.7,0,0,0,4.613.961c3.509,0,5.925-1.5,5.925-4.546,0-5.031-6.458-4.128-6.458-6.03Zm56.6,3.167c0-4.327-2.092-7.742-6.106-7.742S48.3,17.478,48.3,21.777c0,5.088,2.882,7.437,6.99,7.437a9.461,9.461,0,0,0,4.679-1.094V24.944a8.933,8.933,0,0,1-4.147.932c-1.645,0-3.091-.58-3.281-2.558h8.265c.019-.219.057-1.1.057-1.512Zm-8.36-1.6c0-1.9,1.17-2.7,2.225-2.7,1.037,0,2.14.8,2.14,2.7ZM41.768,14.064a4.76,4.76,0,0,0-3.31,1.322l-.219-1.046H34.521V33.817l4.223-.894.009-4.774a4.731,4.731,0,0,0,2.986,1.065c3.024,0,5.782-2.206,5.782-7.57.01-4.907-2.787-7.58-5.754-7.58ZM40.76,25.714a2.536,2.536,0,0,1-1.988-.8l-.029-6.277A2.534,2.534,0,0,1,40.76,17.8c1.541,0,2.606,1.731,2.606,3.937C43.375,24.012,42.329,25.714,40.76,25.714ZM28.71,28.919h4.242V14.349H28.71Z" transform="translate(-0.007 -8.719)" fill="#fcfcfc"/>
</svg>
