<svg xmlns="http://www.w3.org/2000/svg" width="48.542" height="37.755" viewBox="0 0 48.542 37.755">
  <path id="Icon_awesome-cc-visa" data-name="Icon awesome-cc-visa" d="M39.617,19.046s.64,3.135.784,3.792H37.586c.278-.75,1.348-3.666,1.348-3.666-.017.025.278-.767.447-1.256l.236,1.129ZM48.542,6.3V35.96A4.046,4.046,0,0,1,44.5,40H4.045A4.046,4.046,0,0,1,0,35.96V6.3A4.046,4.046,0,0,1,4.045,2.25H44.5A4.046,4.046,0,0,1,48.542,6.3Zm-35.69,21.17,5.326-13.079H14.6l-3.312,8.933-.362-1.812L9.742,15.49a1.409,1.409,0,0,0-1.534-1.1H2.756l-.059.261a13.373,13.373,0,0,1,3.556,1.441L9.27,27.465Zm7.956.017,2.124-13.1H19.543l-2.115,13.1ZM32.6,23.2c.017-1.492-.893-2.629-2.84-3.565-1.188-.6-1.913-1-1.913-1.618.017-.556.615-1.129,1.947-1.129a5.807,5.807,0,0,1,2.52.5l.3.143.464-2.832a8.416,8.416,0,0,0-3.034-.556c-3.346,0-5.7,1.787-5.714,4.332C24.3,20.352,26.016,21.4,27.3,22.029c1.306.64,1.753,1.062,1.753,1.627-.017.876-1.062,1.281-2.031,1.281a6.751,6.751,0,0,1-3.177-.7l-.447-.211-.472,2.941a10.341,10.341,0,0,0,3.776.7C30.255,27.676,32.572,25.914,32.6,23.2Zm11.9,4.281-2.731-13.1H39.146a1.667,1.667,0,0,0-1.77,1.087L32.345,27.482H35.9s.581-1.618.708-1.964h4.349c.1.464.4,1.964.4,1.964Z" transform="translate(0 -2.25)" fill="#fcfcfc"/>
</svg>
